<svg width="15" height="10" fill="none" xmlns="http://www.w3.org/2000/svg"><path d="M9 1.7a.5.5 0 01.5-.5h4a.5.5 0 010 1h-4a.5.5 0 01-.5-.5zM7.5 6.575A2.625 2.625 0 014.875 9.2H1a.5.5 0 01-.5-.5v-8A.5.5 0 011 .2h3.625a2.375 2.375 0 011.603 4.125A2.625 2.625 0 017.5 6.575zm-6-2.625h3.125a1.375 1.375 0 000-2.75H1.5v2.75zm5 2.625A1.625 1.625 0 004.875 4.95H1.5V8.2h3.375A1.625 1.625 0 006.5 6.575zm8-.375a.5.5 0 01-.5.5H9.562a2 2 0 003.537.7.5.5 0 11.8.6 3 3 0 11.601-1.8zm-1.063-.5a2 2 0 00-3.874 0h3.874z" fill="#000"/></svg>