<svg width="14" height="14" fill="none" xmlns="http://www.w3.org/2000/svg"><path d="M7 .2a6.5 6.5 0 106.5 6.5A6.507 6.507 0 007 .2zm5.478 6.011a10.536 10.536 0 00-3.224.354c-.219-.648-.5-1.272-.84-1.865A10.52 10.52 0 0010.8 2.728a5.486 5.486 0 011.677 3.483zm-2.46-4.107a9.485 9.485 0 01-2.143 1.754A10.576 10.576 0 005.461 1.42a5.5 5.5 0 014.562.684h-.005zM4.353 1.88a9.57 9.57 0 012.625 2.45 9.489 9.489 0 01-5.245.787 5.524 5.524 0 012.62-3.236zM1.5 6.7c0-.201.011-.402.033-.602a10.554 10.554 0 006-.923c.311.539.569 1.107.769 1.696-.531.2-1.045.442-1.537.725a10.576 10.576 0 00-3.442 3.191A5.488 5.488 0 011.5 6.7zm2.625 4.688a9.557 9.557 0 013.14-2.925 9.3 9.3 0 011.31-.625 9.53 9.53 0 01.014 4.127 5.495 5.495 0 01-4.464-.577zm5.566.108a10.543 10.543 0 00-.162-3.967 9.52 9.52 0 012.947-.317 5.508 5.508 0 01-2.785 4.283z" fill="#000"/></svg>