<svg width="500" height="100" fill="none" xmlns="http://www.w3.org/2000/svg"><path d="M133.871 78.877h-10.157v-46.49h10.157v20.194h33.69V32.387h10.157v46.49h-10.157V61.298h-33.69v17.579zm72.563 1.162c-6.724 0-12.136-1.767-16.236-5.303-4.102-3.534-6.152-8.208-6.152-14.02 0-5.81 2.05-10.483 6.152-14.019 4.1-3.534 9.512-5.303 16.236-5.303 6.771 0 12.207 1.769 16.308 5.303 4.101 3.536 6.152 8.209 6.152 14.02 0 5.81-2.051 10.485-6.152 14.019-4.101 3.535-9.537 5.303-16.308 5.303zm0-7.99c3.909 0 7.057-1.041 9.442-3.124 2.384-2.081 3.577-4.818 3.577-8.208 0-3.438-1.193-6.199-3.577-8.281-2.385-2.082-5.533-3.124-9.442-3.124-3.863 0-6.986 1.053-9.37 3.16-2.385 2.107-3.577 4.856-3.577 8.245 0 3.39 1.192 6.127 3.577 8.208 2.384 2.083 5.507 3.124 9.37 3.124zm49.377 7.99c-6.724 0-12.136-1.767-16.236-5.303-4.102-3.534-6.152-8.208-6.152-14.02 0-5.81 2.05-10.483 6.152-14.019 4.1-3.534 9.512-5.303 16.236-5.303 6.771 0 12.207 1.769 16.308 5.303 4.101 3.536 6.152 8.209 6.152 14.02 0 5.81-2.051 10.485-6.152 14.019-4.101 3.535-9.537 5.303-16.308 5.303zm0-7.99c3.91 0 7.057-1.041 9.442-3.124 2.384-2.081 3.577-4.818 3.577-8.208 0-3.438-1.193-6.199-3.577-8.281-2.385-2.082-5.532-3.124-9.442-3.124-3.863 0-6.986 1.053-9.37 3.16-2.385 2.107-3.576 4.856-3.576 8.245 0 3.39 1.191 6.127 3.576 8.208 2.384 2.083 5.507 3.124 9.37 3.124zm41.224 7.554c-4.397 0-6.907-2.045-8.261-3.905l-.078-.11c-1.311-1.853-2.351-4.27-2.389-9.488l-.001-16.061h-5.151v-7.482h6.581v-10.17h8.727v10.17h10.299v7.481h-10.299v13.584c-.076 4.059.563 5.538 1.533 6.522 1.702 1.725 6.9.556 8.766-.653v7.871c-2.176 1.537-6.104 2.24-9.727 2.24zm35.609.436c-6.343 0-12.732-.944-19.17-2.833v-8.281c5.389 2.083 11.23 3.124 17.524 3.124l.743-.003c4.143-.03 7.138-.32 8.985-.87 1.955-.58 2.933-1.62 2.933-3.122 0-1.405-1.085-2.385-3.254-2.942-2.067-.53-4.566-.874-7.497-1.031l-.443-.023a110.852 110.852 0 01-9.37-.835c-3.124-.41-5.771-1.417-7.94-3.014-2.17-1.599-3.254-3.85-3.254-6.756 0-3.97 1.883-6.974 5.65-9.008 3.766-2.034 8.893-3.05 15.379-3.05 5.101 0 11.062.678 17.882 2.034v7.99c-5.866-1.259-11.469-1.889-16.809-1.889-8.107 0-12.16 1.26-12.16 3.778 0 1.26 1.096 2.143 3.29 2.651 2.078.482 4.562.823 7.454 1.022l.486.032c3.099.194 6.21.52 9.334.98 3.123.46 5.781 1.514 7.975 3.16 2.193 1.647 3.291 3.947 3.291 6.9 0 4.069-1.86 7.083-5.579 9.044-3.72 1.961-8.87 2.942-15.45 2.942zm59.429-37.482h10.157v36.32h-11.158l1.431-14.964h-.573c-1.67 10.75-7.535 16.126-17.596 16.126-5.15-.098-8.917-1.804-11.301-5.121-2.342-3.258-3.534-8.653-3.576-16.186l-.001-16.175h10.158v14.528c0 5.473.762 9.37 2.288 11.694 1.526 2.325 4.029 3.487 7.511 3.487 3.863 0 6.938-1.79 9.227-5.375 2.237-3.502 3.38-8.137 3.431-13.906l.002-10.428zm23.942-3.49c-1.955 0-3.481-.497-4.577-1.49-1.097-.992-1.645-2.458-1.645-4.395 0-1.937.548-3.389 1.645-4.358 1.096-.969 2.622-1.453 4.577-1.453 2.004 0 3.565.485 4.686 1.453 1.12.97 1.681 2.421 1.681 4.358 0 3.922-2.123 5.884-6.367 5.884zm5.223 39.81H411.08v-36.32h10.158v36.32zm57.232 1.162c-6.486 0-11.695-1.767-15.629-5.303-3.934-3.534-5.901-8.208-5.901-14.02 0-5.81 1.967-10.483 5.901-14.019 3.934-3.534 9.143-5.303 15.629-5.303 6.39 0 11.552 1.515 15.486 4.54 3.858 2.97 5.87 6.857 6.036 11.666l.008.348v5.892h-33.332c.572 2.955 2.086 5.086 4.542 6.393 2.456 1.307 6.068 1.961 10.836 1.961l.675-.005c5.836-.074 8.592-1.057 11.557-2.174l.284-.117c.945-.4 3.571-1.572 3.864-1.7v8.282c-3.576 1.405-6.7 2.349-9.37 2.833-2.671.484-6.199.726-10.586.726zm-12.017-21.21l23.891-.582c-.143-3.196-1.17-5.484-3.076-6.865-1.908-1.38-4.84-2.07-8.798-2.07-3.815 0-6.688.74-8.619 2.216-1.931 1.478-3.064 3.91-3.398 7.3zm-22.561 20.774c-4.396 0-6.906-2.045-8.26-3.905l-.078-.11c-1.311-1.853-2.351-4.27-2.389-9.488l-.002-16.061h-5.15v-7.482h6.581v-10.17h8.726v10.17h10.3v7.481h-10.3v13.584c-.075 4.059.564 5.538 1.534 6.522 1.702 1.725 6.9.556 8.766-.653v7.871c-2.176 1.537-6.104 2.24-9.728 2.24zM9.821.827c.215-.617.86-.953 1.472-.783l.087.027L44.35 12.8c1.559-.26 3.106-.39 4.629-.38 5.754.041 11.188 1.353 16.637 4.622l31.713-2.666a1.02 1.02 0 01.923.501 1.053 1.053 0 01-.269 1.378l-.09.06-19.81 11.719c.32.372.64.753.962 1.142C88.07 40.106 93.56 55.92 96.183 65.064a18.372 18.372 0 01-2.722 15.768c-5.894 8.192-18.463 19.344-43.123 19.166-26.922-.19-40.828-13.792-47.51-22.151A13.157 13.157 0 01.832 65.09l.5-1.327c3.943-10.414 11.288-28.5 17.17-35.225 3.543-4.044 7.627-7.536 11.942-10.226L10.194 2.197a1.252 1.252 0 01-.373-1.37z" fill="#222"/><path d="M49.572 71.62a.214.214 0 01.279-.125 16.691 16.691 0 0014.13 1.275l.268-.1a.203.203 0 01.243.052.211.211 0 01.01.259l-5.901 6.6a1.015 1.015 0 01-1.43.084c-2.181-1.905-5.826-5.883-7.573-7.837a.222.222 0 01-.026-.208zm8.193-33.8c15.261-10.782 23.534-1.422 28.176 8.961 3.354 7.483 4.542 21.494-6.345 23.64-8.34 1.652-16.045-6.928-21.744-14.939a1.788 1.788 0 00-2.92-.008l-.231.328C50.8 61.357 41.497 76.459 27.73 72.637c-13.285-3.694-16.204-18.869-10.679-29.359 8.175-15.818 20.118-20.972 40.713-5.457zm-2.17 21.707a1.37 1.37 0 011.885-.034l.077.075 7.293 8.44a.756.756 0 01-.215 1.16 16.219 16.219 0 01-7.078 1.814c-3.243-.027-6.561-2.213-7.92-3.218l-.055-.045a.759.759 0 01-.111-.996l.05-.064 5.992-7.059.01.003c.024-.026.048-.052.073-.076z" fill="#fff"/><path d="M75.475 47.146l.084.138c1.765 2.782.975 6.49-1.765 8.282-2.74 1.792-6.39.99-8.155-1.792-1.716-2.706-1.018-6.294 1.555-8.139l.142-.098a5.649 5.649 0 017.96 1.339 5.7 5.7 0 01.18.27zm-36.891-3.192c-3.071 1.063-4.598 4.375-3.683 7.46 1.047 3.119 4.309 4.67 7.346 3.74 3.071-1.063 4.573-4.417 3.683-7.46.008-.02-.012-.078-.05-.147-.944-3.002-3.961-4.588-6.834-3.76-.132-.033-.297.067-.462.167z" fill="#222"/></svg>