<svg width="300" height="90" fill="none" xmlns="http://www.w3.org/2000/svg"><path d="M46.617 0C20.871 0 0 20.146 0 45c0 24.853 20.87 45 46.617 45 25.747 0 46.618-20.147 46.618-45 0-24.854-20.871-45-46.618-45zm21.235 65.028c-.214.327-.493.61-.82.832-.328.223-.698.38-1.09.465a3.15 3.15 0 01-2.298-.391c-7.886-4.841-16.858-6.232-24.425-6.229C31.12 59.7 24.718 61.3 23.372 61.67c-.193.052-.26.073-.26.073h.001a3.148 3.148 0 01-2.324-.21 2.97 2.97 0 01-1.488-1.736 2.852 2.852 0 01.218-2.243 3.027 3.027 0 011.797-1.437c.185-.05 7.713-2.294 17.904-2.298 8.306.003 18.464 1.497 27.695 7.149a2.947 2.947 0 011.34 1.843 2.86 2.86 0 01-.403 2.217zm6.054-12.449a3.616 3.616 0 01-.963 1.04 3.76 3.76 0 01-1.302.604 3.83 3.83 0 01-2.806-.386c-10.414-5.944-21.143-7.558-29.729-7.56-8.694-.003-15.127 1.672-16.431 2.046a6.54 6.54 0 00-.237.069 3.82 3.82 0 01-2.798-.244 3.611 3.611 0 01-1.816-2.07 3.462 3.462 0 01.212-2.705 3.666 3.666 0 012.119-1.782c.247-.072 7.9-2.456 18.95-2.461 9.526-.002 21.648 1.793 33.498 8.555a3.59 3.59 0 011.701 2.186 3.466 3.466 0 01-.398 2.709zm2.854-11.823c-.74 0-1.49-.179-2.18-.555-11.597-6.328-23.915-8.101-33.975-8.1C30.06 32.099 22.083 34.06 20.44 34.5c-.235.064-.305.085-.305.085a4.593 4.593 0 01-3.384-.316 4.413 4.413 0 01-1.341-1.06 4.244 4.244 0 01-.82-1.475 4.148 4.148 0 01.328-3.267 4.326 4.326 0 011.098-1.296c.45-.358.97-.627 1.528-.79.28-.077 9.721-2.848 23.06-2.856 11.108.002 24.995 1.937 38.345 9.208a4.343 4.343 0 011.91 2.066 4.15 4.15 0 01.204 2.762 4.282 4.282 0 01-1.587 2.306 4.546 4.546 0 01-2.716.89zm85.237-7.085c-8.298 0-14.7 7.341-14.7 16.398 0 9.055 5.771 16.397 14.7 16.397 8.299 0 15.028-7.342 15.028-16.397 0-9.057-6.728-16.398-15.028-16.398zm-1.905 25.648c-4.919 0-8.657-4.142-8.657-9.25 0-5.109 3.737-9.25 8.657-9.25 5.315 0 8.658 4.141 8.658 9.25 0 5.108-3.52 9.25-8.658 9.25z" fill="#222"/><path d="M143.432 34.407h8.276v6.044l-1.852 5.887v8.198l1.906 6.78v13.823h-8.385l.055-40.732zm53.193-.771c-9.541 0-17.277 7.34-17.277 16.397 0 9.057 7.736 16.398 17.277 16.398 9.542 0 17.278-7.34 17.278-16.398 0-9.056-7.735-16.397-17.278-16.397zm-.035 25.858c-5.072 0-9.184-4.205-9.184-9.39 0-5.186 4.112-9.39 9.184-9.39 5.071 0 9.182 4.204 9.182 9.39 0 5.185-4.11 9.39-9.182 9.39zm41.85-25.157h8.421v31.604h-8.421V34.337zm4.356-3.924c2.846 0 5.153-2.228 5.153-4.975 0-2.748-2.307-4.975-5.153-4.975-2.847 0-5.154 2.227-5.154 4.975 0 2.747 2.307 4.975 5.154 4.975zm19.672 2.382v33.041h-8.421V33.678s-.747-11.626 10.527-11.395c0 0 3.338.07 6.025 1.051v6.783s-2.103-.802-4.936-.826c0 0-3.239-.1-3.195 3.504zm-35.68 23.119V26.066h-8.42v31.012s-.632 9.901 10.527 9.242c0 0 3.223 0 6.025-1.712v-6.58s-2.103 1.17-4.936 1.192c0 0-3.315.085-3.196-3.306z" fill="#222"/><path d="M291.368 34.337l-7.774 21.723-8.652-21.723h-24.743v7.007h18.875l10.382 23.686c-.866 3.574-3.848 3.364-3.848 3.364-2.106 0-4.428-1.402-4.428-1.402l-2.831 5.887c2.274 2.042 7.84 2.312 7.84 2.312 8.276 0 10.671-7.848 10.671-7.848L300 34.337h-8.632zm-76.933.019h20.71v7.003h-20.71v-7.003zm-79.443 1.032s-5.445-4.204-11.253-4.204c0 0-5.878-.294-6.17 3.994 0 0-.3 3.618 3.967 4.654 0 0 10.462 3.007 13.09 4.239 0 0 6.412 2.592 6.028 10.589 0 0 .045 11.628-15.608 11.772 0 0-10.744.281-17.931-7.077l5.082-5.536s5.662 5.326 13.284 5.326c0 0 6.083.196 6.752-4.205 0 0 .76-3.9-5.009-5.186 0 0-8.929-2.172-11.833-3.573 0 0-6.639-2.309-6.388-10.582 0 0 .311-11.9 15.245-11.702 0 0 8.643-.273 15.245 5.465l-4.501 6.026z" fill="#222"/></svg>