<svg width="300" height="150" fill="none" xmlns="http://www.w3.org/2000/svg"><path d="M0 150h156.82v-18.943h-9.861v9.511H9.861V9.432H146.96V86.4h9.861V0H0v150z" fill="#222"/><path d="M44.297 91.04h-9.861v35.454h9.86V91.04zm25.4 16.349L59.59 91.04H49.23v35.376h9.376v-18.394h.163l11.42 18.394h9.042V91.04h-9.452v16.349h-.082zM84.082 91.04v35.454h12.492c11.754 0 17.344-2.83 17.344-17.688 0-14.622-5.59-17.609-17.426-17.609l-12.41-.157zm19.729 17.766c0 8.962-2.631 9.511-6.329 9.511h-3.369v-18.63h3.041c4.108 0 6.657.158 6.657 9.119zM127.23 91.04h-9.861v35.454h9.861V91.04zm81.786-.476c-13.81 0-16.271 8.648-16.271 18.159 0 9.432 2.384 18.158 16.271 18.158 13.729 0 16.19-8.647 16.19-18.158 0-9.433-2.385-18.159-16.19-18.159zm0 27.989c-5.426 0-6.164-3.615-6.164-9.432 0-5.818.82-9.354 6.164-9.354 5.426 0 6.164 3.615 6.164 9.354 0 5.817-.826 9.432-6.164 9.432zm69.369-27.989c-13.811 0-16.272 8.648-16.272 18.159 0 9.432 2.385 18.158 16.272 18.158 13.728 0 16.189-8.647 16.189-18.158-.082-9.433-2.467-18.159-16.189-18.159zm0 27.989c-5.426 0-6.164-3.615-6.164-9.432 0-5.818.82-9.354 6.164-9.354 5.426 0 6.164 3.615 6.164 9.354-.082 5.817-.82 9.432-6.164 9.432zm19.312 2.281c-1.81 0-2.302 1.177-2.302 2.752 0 1.496.41 2.673 2.302 2.673 1.811 0 2.303-1.177 2.303-2.673 0-1.575-.492-2.752-2.303-2.752zm0 4.954c-1.476 0-1.892-1.02-1.892-2.281 0-1.255.328-2.281 1.892-2.281 1.565 0 1.893 1.02 1.893 2.281-.082 1.334-.41 2.281-1.893 2.281z" fill="#222"/><path d="M298.934 122.958c0-.628-.247-1.02-1.067-1.02h-1.312v3.222h.738v-1.177h.41l.492 1.177h.739l-.575-1.255c.411-.163.575-.477.575-.947zm-1.073.47h-.574v-.941h.574c.328 0 .41.157.41.471 0 .313-.164.47-.41.47zm-124.108-10.614h6.411v.628c0 3.85.164 5.66-4.77 5.66-4.523 0-6.164-1.967-6.164-9.981 0-8.334 2.549-9.355 6.492-9.355 2.959 0 4.934.785 6.656 1.654l5.262-7.942c-2.795-1.732-6.902-2.83-11.508-2.83-12.82 0-16.851 5.896-16.851 18.159 0 10.693 2.959 18.158 15.123 18.158 2.138 0 4.025-.157 5.59-.392h9.123V105.27h-14.139l-1.225 7.544zm69.37 0h6.41v.628c0 3.85.164 5.66-4.77 5.66-4.523 0-6.164-1.967-6.164-9.981 0-8.334 2.549-9.355 6.492-9.355 2.959 0 4.934.785 6.657 1.654l5.261-7.942c-2.795-1.732-6.902-2.83-11.508-2.83-12.82 0-16.851 5.896-16.851 18.159 0 10.693 2.959 18.158 15.123 18.158 2.139 0 4.025-.157 5.59-.392h9.123V105.27h-14.303l-1.06 7.544zM156.82 99.688V91.04h-24.574v35.376h24.574v-8.334h-14.877v-5.347h9.786l1.23-8.412h-11.016v-4.635h14.877z" fill="#222"/></svg>