<svg width="434" height="160" fill="none" xmlns="http://www.w3.org/2000/svg"><g clip-path="url(#clip0_316_2)" fill="#fff"><path d="M4.266 1.6c-2.533 2.533-2 6.267 5.067 34.8 6 24 7.2 27.333 10.667 30.533l4 3.734h28.533c27.067 0 28.534-.134 30.933-2.8 2.267-2.534 2.267-3.067.4-6.267l-2-3.6-26.8-.4-26.8-.267L22 31.6c-3.467-14-7.2-26.933-8.133-28.667C11.732-.267 6.8-.933 4.267 1.6zM131.067 8c-2.267.8-5.734 3.2-7.6 5.467C120.533 16.8 120 18.933 120 25.6c0 7.467.4 8.4 4.533 12.4 2.667 2.4 7.734 5.2 12.267 6.533C148 48 150.667 50 150.667 54.667c0 6.666-4.534 8.533-17.867 7.466l-11.067-.933-.933 4.267c-.4 2.4-.267 4.933.4 5.6.8.8 7.2 1.6 14.4 2 11.467.533 13.867.266 18.667-2.134 6.4-3.333 9.733-9.466 9.733-17.866 0-8.267-3.733-13.6-11.6-16.4-20.4-7.467-23.733-10.4-18.267-16C136 18.8 138.8 18.533 149.2 18.8l12.8.4.4-4.8c.267-3.467-.133-4.933-1.867-5.6-4-1.6-25.066-2.133-29.466-.8zm58.266 1.6c-4.666 2.4-6.8 4.667-9.333 9.733-2.933 5.867-3.333 8.4-3.333 21.334 0 18.533 2.666 25.6 11.466 30 7.6 4 25.734 3.466 31.334-.8 6.666-4.934 9.066-11.734 9.6-26.8.666-15.6-1.6-24.534-7.467-30C214 6 199.467 4.533 189.333 9.6zM212 22c2.933 3.067 3.333 4.933 3.733 16.4.534 14.933-1.733 21.2-8.133 23.333-5.333 1.734-12.667 0-14.933-3.466-4.534-7.067-4-30 .8-36.134 2.266-2.8 3.866-3.466 9.066-3.466 5.067 0 6.934.666 9.467 3.333zm44.8-14c-4.667 1.467-8.4 4.8-11.333 10-1.734 3.2-2.134 7.733-2.134 22 0 16 .267 18.667 2.934 23.467 4.4 8.266 9.733 10.266 25.866 9.6 7.2-.267 13.467-.934 14-1.334.4-.533.534-2.933 0-5.466l-.8-4.534-11.333.134c-15.467.133-16.933-1.334-17.733-17.467-.667-13.6 1.2-22.4 5.333-24.533 1.6-.8 7.067-1.334 13.2-.934l10.533.4.8-4.4c.534-2.4.534-4.8.134-5.2C283.6 7.067 263.733 6 256.8 8zm85.867 1.6c-4.134 2.133-7.067 4.933-9.334 9.067-3.066 5.466-3.333 7.466-3.333 22 0 14.666.267 16.533 3.333 21.866 4.667 8.134 10.134 10.8 22.667 10.8 18.933 0 25.6-7.333 26.4-29.333.667-14-.8-21.2-5.467-28.133-4-6-9.066-8.267-19.6-8.934-7.066-.4-9.733.134-14.666 2.667zm23.2 13.467c2.266 3.066 2.933 6.133 3.2 16C369.6 57.6 364.8 64.4 352.533 62.133c-6.133-1.2-8.666-5.6-9.466-16-.934-11.2.4-19.733 3.866-24.133 2.4-3.067 3.467-3.467 9.467-3.067 5.467.267 7.2 1.067 9.467 4.134zm-64.534 17.6v32.666h12V8h-12v32.667zM22.8 82.267c-2.933 3.066-5.467 10-13.2 37.066-5.333 18.267-9.6 34-9.6 34.8 0 2 4.4 5.867 6.667 5.867 4.266 0 6.666-5.6 15.466-36l9.2-32h36.534l2.666 8.933C72 106 76.267 120.4 79.867 133.2c3.733 12.8 7.466 24 8.266 24.933 1.867 2.267 6.8 2.4 8.934.267.933-.933 1.6-3.067 1.6-5.067 0-3.733-17.467-64.666-19.867-69.066-2.667-4.934-5.867-5.6-29.467-5.6H26.4l-3.6 3.6zm107.2 6.4c-5.067 2.666-7.067 5.333-8.8 11.6-1.867 7.066.4 14.8 5.466 18.4 2.134 1.6 8.267 4.266 13.6 6.133 10 3.333 11.734 4.667 11.734 9.467 0 6-3.467 7.466-16.8 6.8l-12.267-.534-.8 3.867c-.4 2.133-.8 4.4-.8 4.933 0 1.334 15.067 4 22.133 4 2.934 0 8-1.333 11.2-3.066 7.867-3.867 10.934-9.734 10.267-19.467-.667-9.067-4.8-13.2-17.2-17.333-14.533-4.8-18.133-9.6-11.067-14.267 2.8-1.867 5.467-2.133 14.534-1.333 12 .8 12.8.533 12.8-6.534 0-2.4-.934-3.2-4.934-3.866-9.6-1.467-24.933-.934-29.066 1.2zm50 30.533V152h13.333v-18.667h8.4c11.734-.133 18.4-3.333 22.134-10.933 3.6-7.6 3.733-18.667.266-25.067-4.266-8-9.066-9.866-27.733-10.4L180 86.4v32.8zm31.2-17.6c2.933 4 2.667 13.333-.133 16.933-1.734 2.134-4.4 3.2-10 3.734l-7.734.8v-24.4h7.867c6.8 0 8.267.4 10 2.933zm36.133-13.333c-.8 2.4-14 61.333-14 62.666 0 .534 2.934 1.067 6.534 1.067h6.4l1.2-5.733 1.2-5.6h22.666l1.2 5.6 1.2 5.733h6.4c4.4 0 6.534-.533 6.534-1.733-.134-.8-3.2-15.467-7.067-32.267l-7.067-30.667-12.266-.4c-9.067-.266-12.4.134-12.934 1.334zm16.934 19.2c1.333 5.066 2.666 12 3.2 15.466l.933 6.4h-8.267c-7.2 0-8.133-.266-8.133-2.666 0-3.2 5.067-26.534 6.133-28.267 1.734-2.8 4 .4 6.134 9.067zM306.8 88.933c-7.466 3.734-10 11.2-10 30.4-.133 13.734.4 16.934 2.8 22.4 2.4 5.2 4.134 6.8 9.334 9.2 5.333 2.4 7.866 2.667 17.333 2 6.133-.4 11.733-1.2 12.4-1.6.8-.4 1.333-3.066 1.333-5.733v-4.933l-11.866.4c-11.334.533-11.867.4-14.534-3.067-3.6-4.533-4.933-16-3.2-27.067 2-12.133 3.2-12.933 17.6-12.8l12 .267v-5.067c0-4.533-.4-5.066-4.133-5.866-8.267-1.6-24.4-.8-29.067 1.466zm47.867 30.4V152H432v-10.667h-64v-16h64v-12h-64V98.667h64v-12h-77.333v32.666z"/></g><defs><clipPath id="clip0_316_2"><path fill="#fff" d="M0 0h433.333v160H0z"/></clipPath></defs></svg>