<svg width="300" height="90" fill="none" xmlns="http://www.w3.org/2000/svg"><path fill-rule="evenodd" clip-rule="evenodd" d="M86.21 88.523c-13.531-4.454-13.764-24.337-9.785-39.765 2.25-8.664 5.572-14.397 9.177-17.657 2.807-2.638 6.224-4.414 8.61-4.002-1.962-1.567-4.96-1.238-5.803-1.112-7.49 1.071-17.18 9.774-20.97 27.967-2.808 13.57.936 26.277 8.894 31.846 2.901 1.898 5.993 3.135 9.876 2.723zm158.638-26.278c-7.771-1.03-15.914-2.97-23.734-2.887-8.24.041-15.447 2.68-20.081 4.993 5.337-5.774 10.251-11.511 18.957-11.882 9.267-.414 16.386 5.239 22.33 8.499.89.496 1.682.866 2.528 1.277z" fill="#222"/><path fill-rule="evenodd" clip-rule="evenodd" d="M132.692 48.426c-3.462 1.488-5.897 4.662-7.584 7.883-1.963 3.668-5.523 10.971-7.959 15.466-6.224 11.675-12.778 16.502-22 17.945-4.538.698-9.363.08-14.277-1.734 5.01.866 8.38.497 12.125-.99 7.535-2.928 12.216-10.477 17.086-20.336 5.054-10.231 11-17.534 17.88-18.36 1.686-.203 3.374-.285 4.729.127z" fill="#222"/><path fill-rule="evenodd" clip-rule="evenodd" d="M202.812 62.41c-5.803 4.827-11.748 7.963-18.162 7.963-10.251 0-16.009-4.126-24.152-11.633-3.699-3.463-10.349-10.024-16.712-11.55-6.04-1.443-14.322-.084-18.066 1.61 4.632-1.075 7.021-.536 9.218.41 2.202.95 6.18 3.55 8.521 5.86 7.444 7.258 15.263 13.942 20.83 16.747 6.414 3.215 17.882 6.394 27.288.947 4.543-2.637 8.007-6.517 11.235-10.354zm38.851-1.816c.187.125.423.252.702.414 19.475 10.726 33.329 5.899 40.445 2.598-3.883-1.196-8.8-4.124-10.485-6.886-4.682 4.454-11.047 6.022-17.366 5.939-2.906-.041-8.755-.62-13.296-2.065zM51.805 2.638c-.234 0-1.126 0-1.594.166-5.617 2.146-10.484 15.8-9.267 30.36 1.543 18.028 8.66 28.546 19.565 33.497 9.83 4.454 19.336 4 26.167 1.278 9.362-3.672 17.461-12.09 18.067-25.081.234-5.692-1.403-11.096-4.96-14.232-2.714-2.353-7.395-3.96-13.48-2.186 3.322-.742 6.225-.165 8.097 1.032 3.042 1.857 4.447 5.692 4.636 10.972.14 5.695-2.017 18.316-13.296 23.184-9.596 4.126-22.093.083-30.193-10.436-7.534-9.695-8.566-22.36-8.52-29.372.142-10.726 2.531-17.902 4.778-19.182zM.269 65.67c-.75 4.29 0 10.104 3.133 14.068 4.309 5.4 9.692 6.927 14.889 6.35-5.431-1.691-8.425-5.362-9.69-10.804-.797-3.385-.606-7.344.373-10.89C6.494 65.71 3.03 66.163.27 65.67z" fill="#222"/><path fill-rule="evenodd" clip-rule="evenodd" d="M26.482 86.707C41.084 84.894 54.659 66.7 61.447 43.6 67.909 21.572 63.743.618 55.924.534c-1.778 0-4.025.865-6.788 2.805a5.575 5.575 0 011.777-.658c3.42-.413 4.915 3.628 5.806 10.229.982 6.97.14 21.367-6.414 37.701-7.584 18.978-20.83 33.291-30.142 35.189-2.718.536-5.48.577-8.103-.165 3.747 1.404 8.57 1.816 14.422 1.07zm110.422-44.631l4.262-17.699h-10.065l-4.261 17.7h-12.265L124.733 0h12.266l-3.701 15.47h10.065L147.062 0h12.214l-10.108 42.076h-12.264zm54.486-21.534l-2.155 8.952c-1.45 6.35-1.495 10.313-.235 12.58h-10.948c-.234-1.073-.286-2.228-.329-3.343-.608.826-1.544 1.61-2.715 2.352V34.07c1.121-.824 1.823-2.186 2.152-3.546l3.044-13.077c-1.92-.412-3.746 0-5.196 1.072V10.93a29.633 29.633 0 015.757-.785c4.87-.207 10.724.742 13.341 1.856-1.031 2.188-2.105 5.53-2.716 8.541zm-16.382 20.54V34.07c-.752.535-1.637.867-2.668.787-1.544-.084-2.574-1.322-2.574-3.26 0-3.88 1.827-9.571 4.307-12.21.283-.332.607-.618.935-.868V10.93c-3.648.865-7.02 2.432-9.688 4.784-4.588 4.041-7.489 9.57-7.864 16.254v1.774c.282 5.569 3.841 9.445 10.718 9.322 2.527-.082 4.961-.909 6.834-1.981zm40.069.994H201.97l-3.887-29.907 11.845-1.733.936 10.602c.372 4.207.467 5.94.517 9.239h.138c1.356-3.218 2.248-5.446 4.587-9.9l4.913-9.445h12.312l-18.254 31.144zm33.234-6.56c2.763-.039 6.368-1.03 8.941-3.01l2.431 6.805c-3.696 2.392-7.86 3.424-11.372 3.712v-7.506zm0-25.329c.702-.08 1.453-.08 2.245-.08 7.022 0 12.546 2.474 12.546 8.868 0 5.443-4.913 10.313-14.792 10.725v-6.394c2.477-.373 4.262-1.649 4.262-3.672 0-1.443-1.128-2.435-2.81-2.435a5.33 5.33 0 00-1.452.206l.001-7.218zm-6.037 21.45c-.047-.741.046-1.524.141-2.269.795.166 2.904.372 4.071.372.655 0 1.219 0 1.827-.04v-6.394c-.513.08-1.031.122-1.591.164a12.241 12.241 0 01-2.718-.33c.516-2.886 2.017-5.072 4.31-5.735v-7.218c-11.096 1.074-17.835 10.106-17.694 19.8.046 3.094.748 5.982 2.766 8.417 2.618 3.176 6.69 4.704 12.355 4.743.795 0 1.685-.04 2.573-.123v-7.506h-.607c-3.188-.086-5.199-1.323-5.433-3.88zm54.769 10.44c-1.268-2.269-1.221-6.231.233-12.582l2.343-9.693c1.169-4.788 0-9.614-8.475-9.655-3.93 0-7.958 1.32-10.86 3.506 0-1.197-.188-2.598-.514-3.506l-11.139 1.733c.936 2.972.651 6.6-.424 11.302l-4.541 18.896h11.797l5.103-21.122c1.403-1.485 2.993-2.31 4.913-2.31 1.967 0 2.293 1.403 1.685 3.84l-2.759 11.671c-.703 2.972-.987 6.021-.611 7.92h13.249z" fill="#222"/></svg>