<svg width="300" height="90" fill="none" xmlns="http://www.w3.org/2000/svg"><path d="M102.621 56.417h4.718c1.86 0 3.445.225 4.755.675 1.31.454 2.463 1.305 3.461 2.552 1.493 1.912 2.241 4.25 2.241 7.012 0 3.374-.878 6.012-2.627 7.909-1.754 1.9-4.235 2.85-7.45 2.85H97.212v-28.61h5.41l-.001 7.612zm0 4.504v11.994h3.781c1.022 0 1.888-.1 2.597-.3.708-.2 1.292-.525 1.753-.98.461-.454.794-1.06 1.004-1.818.209-.758.315-1.686.315-2.78 0-2.265-.487-3.85-1.456-4.758-.972-.905-2.52-1.358-4.647-1.358h-3.347zm18.427 16.494v-28.61h5.685v28.61h-5.685zm18.363 0c-2.979 0-5.155-.59-6.528-1.774-1.371-1.18-2.057-3.153-2.057-5.917V56.417h5.41v12.87c0 .69.053 1.26.159 1.712.107.452.291.811.555 1.075.262.268.633.452 1.107.56.475.104 1.069.159 1.783.159h4.434V56.415h5.412v20.999h-10.275zm24.176 0c-3.45 0-6.044-.877-7.782-2.63-1.739-1.754-2.607-4.37-2.607-7.85 0-3.453.868-6.071 2.607-7.85 1.737-1.779 4.333-2.67 7.782-2.67h7.96V60.8h-7.216c-.862 0-1.612.045-2.254.138-.641.093-1.162.286-1.568.578-.406.292-.712.697-.922 1.214-.211.518-.328 1.19-.353 2.012h12.311v4.382h-12.311c.025.877.137 1.568.333 2.073.196.504.496.896.902 1.175.406.278.921.459 1.549.538.627.079 1.386.12 2.274.12h7.253v4.384h-7.958zm17.11-20.998h4.716c1.861 0 3.447.225 4.757.675 1.307.454 2.462 1.305 3.46 2.552 1.494 1.912 2.24 4.25 2.24 7.012 0 3.374-.876 6.012-2.626 7.909-1.755 1.9-4.234 2.85-7.449 2.85h-10.509v-28.61h5.412l-.001 7.612zm0 4.504v11.994h3.78c1.023 0 1.889-.1 2.597-.3.707-.2 1.292-.525 1.752-.98.461-.454.795-1.06 1.005-1.818.209-.759.316-1.686.316-2.78 0-2.265-.487-3.85-1.457-4.758-.97-.905-2.52-1.358-4.646-1.358h-3.347zm27.889-4.505c2.141 0 3.643.399 4.508 1.196.861.797 1.293 2.165 1.293 4.103v3.507h-5.215v-2.71c0-.93-.178-1.505-.533-1.733-.358-.225-.984-.339-1.879-.339h-1.939v16.975h-5.413V56.416h9.178zm9.459-2.391v-5.22h5.724v5.22h-5.724zm0 23.39V56.417h5.724v20.998h-5.724zm19.095 0c-3.242 0-5.734-.95-7.472-2.85-1.738-1.898-2.604-4.534-2.604-7.909 0-2.763.747-5.1 2.24-7.013.969-1.246 2.116-2.098 3.44-2.55 1.322-.452 2.912-.676 4.776-.676h4.679v-7.61h5.411v28.609h-10.47v-.001zm5.057-16.494h-3.31c-2.125 0-3.673.453-4.645 1.358-.973.908-1.455 2.493-1.455 4.758 0 1.092.103 2.018.315 2.78.208.76.543 1.366 1.003 1.818.463.453 1.045.78 1.754.98.708.199 1.573.3 2.598.3h3.741l-.001-11.994zm29.519 15.739c0 2.842-.614 4.947-1.843 6.316-1.229 1.37-3.213 2.052-5.959 2.052h-10.705v-4.263h9.763c1.072 0 1.882-.26 2.432-.777.548-.517.823-1.254.823-2.21v-.359h-4.433c-.781 0-1.521-.012-2.213-.04a10.48 10.48 0 01-1.979-.258 7.17 7.17 0 01-1.825-.699c-.588-.32-1.17-.757-1.749-1.314-.965-.928-1.715-2.098-2.251-3.506-.536-1.409-.804-2.949-.804-4.622 0-1.674.268-3.208.804-4.602.536-1.395 1.286-2.556 2.251-3.486.996-.983 2.106-1.64 3.336-1.974 1.229-.332 2.703-.498 4.43-.498h9.92v20.243h.002v-.003zm-5.488-3.59V60.918h-2.822c-.916 0-1.719.026-2.409.08a4.326 4.326 0 00-1.906.598c-.886.532-1.514 1.229-1.879 2.092-.368.865-.548 1.958-.548 3.288 0 1.195.13 2.192.39 2.989.262.797.668 1.422 1.213 1.873.552.451 1.25.77 2.098.956.851.185 1.863.278 3.04.278h2.823zm19.251 4.345c-3.45 0-6.046-.877-7.784-2.63-1.738-1.754-2.608-4.37-2.608-7.85 0-3.453.87-6.071 2.608-7.85 1.738-1.78 4.334-2.67 7.784-2.67h7.96V60.8h-7.213c-.862 0-1.614.045-2.256.138-.639.093-1.164.286-1.568.578-.406.292-.709.697-.921 1.214-.211.519-.329 1.19-.356 2.012h12.312v4.382h-12.312c.028.877.138 1.568.334 2.073.199.504.497.896.903 1.175.406.278.924.459 1.548.538.628.079 1.385.12 2.274.12h7.253v4.384h-7.958z" fill="#222"/><path d="M200.267 8.289C132.066-4.984 49.399 13.004 4.419 77.946h47.5C90.928 22.88 141.863 1.62 200.267 8.289z" fill="#222"/><path d="M110.406 29.569c51.804-25.575 114.787-13.954 147.275 20.22h22.639C226.783 6.083 161.672-1.57 110.406 29.568z" fill="#222"/><path d="M200.267 8.29C141.863 1.62 90.927 22.88 51.918 77.945h5.053C74.854 56.36 90.119 41.074 110.404 29.57 161.671-1.57 226.783 6.084 280.318 49.79h4.986c-20.348-20.363-50.877-34.85-85.037-41.5z" fill="#222"/></svg>