<svg width="300" height="90" fill="none" xmlns="http://www.w3.org/2000/svg"><path d="M15.358.069v54.063c0 5.708 2.647 11.182 7.36 15.218 4.712 4.036 11.103 6.304 17.767 6.304s13.056-2.268 17.768-6.304c4.712-4.036 7.36-9.51 7.36-15.218V0H80.97v87.671H65.773v-8.126c-5.629 4.345-12.6 7.207-20.08 8.244-7.48 1.037-15.151.205-22.093-2.397S10.74 78.528 6.554 73.118C2.368 67.708.093 61.38 0 54.89V.07h15.358zM92.388 0h14.795v31.956c5.449-4.351 12.264-7.242 19.607-8.318 7.343-1.075 14.893-.288 21.72 2.265 6.827 2.553 12.633 6.76 16.704 12.104 4.071 5.344 6.228 11.59 6.206 17.971-.021 6.38-2.221 12.616-6.327 17.94-4.107 5.323-9.941 9.502-16.786 12.021-6.844 2.52-14.399 3.27-21.734 2.158-7.336-1.112-14.131-4.037-19.551-8.414v7.988H92.388V0zm40.204 77.96c5.089 0 10.063-1.292 14.295-3.713 4.231-2.422 7.529-5.864 9.477-9.89 1.947-4.028 2.457-8.459 1.464-12.734-.993-4.275-3.444-8.202-7.042-11.284-3.599-3.082-8.183-5.181-13.174-6.032-4.992-.85-10.165-.413-14.867 1.255-4.701 1.668-8.72 4.492-11.547 8.117-2.828 3.624-4.337 7.885-4.337 12.243 0 5.845 2.711 11.45 7.537 15.584 4.825 4.133 11.37 6.455 18.194 6.455zm84.347-55.44c9.895 0 19.385 3.498 26.382 9.723 6.996 6.225 10.927 14.669 10.927 23.473v4.132h-60.627c.537 4.456 2.696 8.654 6.172 12 3.476 3.347 8.093 5.672 13.198 6.648 5.104.974 10.437.55 15.244-1.215 4.807-1.765 8.844-4.78 11.54-8.618l10.694 6.75c-3.824 4.749-9.006 8.58-15.051 11.125s-12.75 3.72-19.477 3.414c-6.726-.306-13.248-2.085-18.944-5.165-5.695-3.08-10.373-7.36-13.587-12.43-3.214-5.07-4.857-10.762-4.772-16.531.086-5.769 1.896-11.423 5.26-16.421 3.363-5 8.166-9.176 13.951-12.132 5.784-2.956 12.357-4.592 19.09-4.753zm-23.157 27.273h45.43c-2.493-9.78-11.659-16.253-22.675-16.253-10.855 0-20.102 6.542-22.755 16.253zm100.027-14.738c-4.388.06-8.58 1.791-11.687 4.825-3.107 3.034-4.885 7.133-4.958 11.428v36.295h-14.795V23.76h14.634v7.92c3.619-5.165 9.649-8.402 17.851-8.402H300v11.777h-6.191z" fill="#222"/></svg>