<?xml version="1.0" encoding="utf-8"?><svg viewBox="0 0 500 150" xmlns="http://www.w3.org/2000/svg" xmlns:xlink="http://www.w3.org/1999/xlink"><style>:root>svg{display:none}:root>svg:target{display:block}</style><svg fill="none" viewBox="0 0 15 10" id="Be" xmlns="http://www.w3.org/2000/svg"><path d="M9 1.7a.5.5 0 0 1 .5-.5h4a.5.5 0 0 1 0 1h-4a.5.5 0 0 1-.5-.5zM7.5 6.575A2.625 2.625 0 0 1 4.875 9.2H1a.5.5 0 0 1-.5-.5v-8A.5.5 0 0 1 1 .2h3.625a2.375 2.375 0 0 1 1.603 4.125A2.625 2.625 0 0 1 7.5 6.575zm-6-2.625h3.125a1.375 1.375 0 0 0 0-2.75H1.5v2.75zm5 2.625A1.625 1.625 0 0 0 4.875 4.95H1.5V8.2h3.375A1.625 1.625 0 0 0 6.5 6.575zm8-.375a.5.5 0 0 1-.5.5H9.562a2 2 0 0 0 3.537.7.5.5 0 1 1 .8.6 3 3 0 1 1 .601-1.8zm-1.063-.5a2 2 0 0 0-3.874 0h3.874z" fill="#000"/></svg><svg fill="none" viewBox="0 0 10 10" id="accordion-arrow-down" xmlns="http://www.w3.org/2000/svg"><path d="M9.354.994 2.207 8.14H7.5a.5.5 0 1 1 0 1H1a.5.5 0 0 1-.5-.5v-6.5a.5.5 0 0 1 1 0v5.293L8.646.286a.5.5 0 0 1 .708.708z" fill="#fff"/></svg><svg fill="none" viewBox="0 0 10 10" id="accordion-arrow-up" xmlns="http://www.w3.org/2000/svg"><path d="M9.5.81v6.5a.5.5 0 0 1-1 0V2.017L1.354 9.164a.5.5 0 1 1-.707-.708L7.793 1.31H2.5a.5.5 0 1 1 0-1H9a.5.5 0 0 1 .5.5z" fill="#222"/></svg><svg fill="none" viewBox="0 0 12 11" id="arrow-down" xmlns="http://www.w3.org/2000/svg"><path d="M11.063 2.688V10a.563.563 0 0 1-.563.563H3.188a.563.563 0 0 1 0-1.125h5.954l-8.04-8.04a.563.563 0 0 1 .796-.796l8.04 8.04V2.688a.563.563 0 1 1 1.125 0z" fill="#222"/></svg><svg fill="none" viewBox="0 0 11 11" id="arrow-up" xmlns="http://www.w3.org/2000/svg"><path d="M10.125.563v7.312a.562.562 0 1 1-1.125 0V1.92L.96 9.96a.563.563 0 0 1-.795-.795l8.04-8.04H2.25A.562.562 0 1 1 2.25 0h7.313a.562.562 0 0 1 .562.563z" fill="#fff"/></svg><svg fill="none" viewBox="0 0 14 14" id="dribble" xmlns="http://www.w3.org/2000/svg"><path d="M7 .2a6.5 6.5 0 1 0 6.5 6.5A6.507 6.507 0 0 0 7 .2zm5.478 6.011a10.536 10.536 0 0 0-3.224.354c-.219-.648-.5-1.272-.84-1.865A10.52 10.52 0 0 0 10.8 2.728a5.486 5.486 0 0 1 1.677 3.483zm-2.46-4.107a9.485 9.485 0 0 1-2.143 1.754A10.576 10.576 0 0 0 5.461 1.42a5.5 5.5 0 0 1 4.562.684h-.005zM4.353 1.88a9.57 9.57 0 0 1 2.625 2.45 9.489 9.489 0 0 1-5.245.787 5.524 5.524 0 0 1 2.62-3.236zM1.5 6.7c0-.201.011-.402.033-.602a10.554 10.554 0 0 0 6-.923c.311.539.569 1.107.769 1.696-.531.2-1.045.442-1.537.725a10.576 10.576 0 0 0-3.442 3.191A5.488 5.488 0 0 1 1.5 6.7zm2.625 4.688a9.557 9.557 0 0 1 3.14-2.925 9.3 9.3 0 0 1 1.31-.625 9.53 9.53 0 0 1 .014 4.127 5.495 5.495 0 0 1-4.464-.577zm5.566.108a10.543 10.543 0 0 0-.162-3.967 9.52 9.52 0 0 1 2.947-.317 5.508 5.508 0 0 1-2.785 4.283z" fill="#000"/></svg><svg fill="none" viewBox="0 0 14 14" id="instagram" xmlns="http://www.w3.org/2000/svg"><path d="M7 3.7a3 3 0 1 0 0 6 3 3 0 0 0 0-6zm0 5a2 2 0 1 1 0-4 2 2 0 0 1 0 4zm3-8.5H4A3.504 3.504 0 0 0 .5 3.7v6A3.504 3.504 0 0 0 4 13.2h6a3.504 3.504 0 0 0 3.5-3.5v-6A3.504 3.504 0 0 0 10 .2zm2.5 9.5a2.5 2.5 0 0 1-2.5 2.5H4a2.5 2.5 0 0 1-2.5-2.5v-6A2.5 2.5 0 0 1 4 1.2h6a2.5 2.5 0 0 1 2.5 2.5v6zM11 3.45a.75.75 0 1 1-1.5 0 .75.75 0 0 1 1.5 0z" fill="#000"/></svg><svg fill="none" viewBox="0 0 150 45" id="logo" xmlns="http://www.w3.org/2000/svg"><g clip-path="url(#na)"><g clip-path="url(#nb)"><g clip-path="url(#nc)"><g clip-path="url(#nd)"><g clip-path="url(#ne)"><g clip-path="url(#nf)"><g clip-path="url(#ng)"><g clip-path="url(#nh)"><path d="M5.22 44.912c-.932.016-1.84-.079-2.725-.284a11.567 11.567 0 0 1-2.37-.806v-1.8l.475-.237a8.846 8.846 0 0 0 2 .91c.688.214 1.475.322 2.36.322 1.184 0 2.116-.206 2.795-.616.68-.411 1.019-1.027 1.019-1.848 0-.57-.15-1.048-.45-1.436-.3-.386-.703-.72-1.209-1.005a15.591 15.591 0 0 0-1.644-.796 48.007 48.007 0 0 1-1.791-.777 9.192 9.192 0 0 1-1.659-.986 4.282 4.282 0 0 1-1.208-1.398c-.3-.553-.45-1.232-.45-2.037 0-1.027.25-1.861.748-2.502.496-.638 1.147-1.107 1.953-1.408.805-.3 1.666-.45 2.582-.45.632 0 1.304.067 2.014.2.711.135 1.414.353 2.109.653v1.8l-.474.238a6.665 6.665 0 0 0-1.692-.749 6.776 6.776 0 0 0-1.814-.246c-.648 0-1.225.09-1.73.27-.506.183-.9.451-1.185.805-.284.357-.426.804-.426 1.341 0 .553.15 1.02.45 1.398.3.38.703.706 1.208.981a15.59 15.59 0 0 0 1.659.782c.6.246 1.197.507 1.791.782.59.278 1.139.611 1.644 1a4.34 4.34 0 0 1 1.209 1.417c.3.562.45 1.246.45 2.051 0 .806-.153 1.49-.46 2.052a3.817 3.817 0 0 1-1.255 1.36 5.847 5.847 0 0 1-1.801.773 8.922 8.922 0 0 1-2.123.246zm16.42 0a8.93 8.93 0 0 1-2.796-.45 6.79 6.79 0 0 1-2.465-1.436c-.726-.654-1.307-1.526-1.743-2.616-.433-1.09-.65-2.424-.65-4.004 0-1.595.217-2.946.65-4.051.436-1.106 1.017-1.995 1.744-2.668a6.826 6.826 0 0 1 2.464-1.47 8.76 8.76 0 0 1 2.795-.459c.948 0 1.88.153 2.796.46.916.31 1.738.8 2.464 1.469.727.673 1.307 1.562 1.74 2.668.435 1.105.653 2.456.653 4.051 0 1.58-.218 2.915-.654 4.004-.432 1.09-1.012 1.962-1.739 2.616a6.804 6.804 0 0 1-2.454 1.436 8.87 8.87 0 0 1-2.806.45zm-.024-1.8c1.01 0 1.935-.222 2.772-.664.837-.442 1.508-1.158 2.014-2.147.505-.985.758-2.307.758-3.966 0-1.643-.25-2.962-.749-3.957-.496-.995-1.162-1.713-2-2.156-.837-.442-1.76-.663-2.772-.663-1.01 0-1.935.221-2.772.663-.837.443-1.505 1.161-2.004 2.156-.496.995-.744 2.314-.744 3.957 0 1.643.248 2.962.744 3.957.499.995 1.162 1.714 1.99 2.156.83.442 1.752.663 2.763.663zm18.078 1.8c-1.643 0-3.017-.34-4.123-1.019-1.106-.679-1.94-1.658-2.502-2.938-.56-1.28-.839-2.803-.839-4.572 0-2.007.324-3.641.972-4.905.647-1.264 1.516-2.2 2.606-2.81 1.09-.607 2.298-.91 3.625-.91a8.898 8.898 0 0 1 4.55 1.208v1.825l-.475.237a6.704 6.704 0 0 0-1.777-1.019c-.679-.268-1.46-.403-2.345-.403-.964 0-1.825.213-2.583.64-.758.427-1.355 1.133-1.791 2.118-.433.989-.65 2.328-.65 4.019 0 2.337.446 4.035 1.337 5.094.894 1.058 2.218 1.587 3.971 1.587.742 0 1.44-.1 2.094-.298a6.424 6.424 0 0 0 1.934-.981l.474.237v1.824a8.898 8.898 0 0 1-2.085.796c-.743.18-1.54.27-2.393.27zm11.534-.284h-2.014V28.043h2.014v16.585zm2.227 0h-6.468v-1.943l1.421.237h3.625l1.422-.237v1.943zm-5.047-14.88-1.422.237v-1.942h6.469v1.942l-1.422-.237h-3.625zm16.064 15.164a8.93 8.93 0 0 1-2.796-.45 6.79 6.79 0 0 1-2.464-1.436c-.726-.654-1.306-1.526-1.739-2.616-.436-1.09-.654-2.424-.654-4.004 0-1.595.218-2.946.654-4.051.433-1.106 1.013-1.995 1.74-2.668a6.827 6.827 0 0 1 2.463-1.47 8.761 8.761 0 0 1 2.796-.459c.948 0 1.88.153 2.796.46.916.31 1.737.8 2.464 1.469.727.673 1.308 1.562 1.744 2.668.433 1.105.65 2.456.65 4.051 0 1.58-.217 2.915-.65 4.004-.436 1.09-1.017 1.962-1.744 2.616a6.812 6.812 0 0 1-2.45 1.436c-.91.3-1.846.45-2.81.45zm-.023-1.8c1.01 0 1.934-.222 2.772-.664.837-.442 1.508-1.158 2.013-2.147.506-.985.759-2.307.759-3.966 0-1.643-.248-2.962-.744-3.957-.5-.995-1.168-1.713-2.005-2.156-.837-.442-1.76-.663-2.772-.663-1.01 0-1.935.221-2.772.663-.837.443-1.504 1.161-2 2.156-.499.995-.748 2.314-.748 3.957 0 1.643.25 2.962.748 3.957.496.995 1.16 1.714 1.99 2.156.828.442 1.748.663 2.758.663zm22.342 1.8c-.932.016-1.84-.079-2.724-.284a11.568 11.568 0 0 1-2.37-.806v-1.8l.474-.237a8.847 8.847 0 0 0 2 .91c.688.214 1.475.322 2.36.322 1.184 0 2.116-.206 2.795-.616.68-.411 1.02-1.027 1.02-1.848 0-.57-.15-1.048-.45-1.436-.301-.386-.704-.72-1.21-1.005a15.38 15.38 0 0 0-1.648-.796 50.23 50.23 0 0 1-1.787-.777 9.192 9.192 0 0 1-1.658-.986 4.282 4.282 0 0 1-1.209-1.398c-.3-.553-.45-1.232-.45-2.037 0-1.027.248-1.861.744-2.502.5-.638 1.152-1.107 1.957-1.408.806-.3 1.667-.45 2.583-.45.632 0 1.303.067 2.014.2.71.135 1.413.353 2.108.653v1.8l-.474.238a6.647 6.647 0 0 0-1.696-.749 6.724 6.724 0 0 0-1.81-.246c-.648 0-1.224.09-1.73.27-.505.183-.9.451-1.184.805-.285.357-.427.804-.427 1.341 0 .553.15 1.02.45 1.398.3.38.703.706 1.209.981a15.52 15.52 0 0 0 1.658.782c.6.246 1.196.507 1.787.782a8.852 8.852 0 0 1 1.649 1c.505.385.908.858 1.208 1.417.3.562.45 1.246.45 2.051 0 .806-.155 1.49-.464 2.052a3.762 3.762 0 0 1-1.256 1.36 5.782 5.782 0 0 1-1.8.773 8.863 8.863 0 0 1-2.119.246zm11.913-.284h-2.488l.237-1.896V29.938l-.237-1.895h5.237c1.169 0 2.164.236 2.985.71.821.474 1.45 1.098 1.886 1.872.433.774.649 1.62.649 2.535 0 .6-.102 1.2-.308 1.8a4.782 4.782 0 0 1-.957 1.636c-.436.49-1.005.88-1.706 1.17-.704.294-1.554.44-2.549.44h-2.986v4.526l.237 1.896zm-.237-14.832v6.658h2.891c1.216 0 2.101-.308 2.654-.924.552-.616.829-1.406.829-2.37 0-.995-.288-1.805-.863-2.43-.578-.623-1.451-.934-2.62-.934h-2.89zm12.273 14.832h-2.274l6.279-16.585h2.274l6.279 16.585h-2.275l-.568-1.896-4.265-11.704-.213-1.516h-.19l-.213 1.516-4.265 11.704-.569 1.896zm9.62-4.786h-9.004v-1.848h9.004v1.848zm12.107 5.07c-1.643 0-3.017-.34-4.122-1.019-1.106-.679-1.94-1.658-2.502-2.938-.56-1.28-.839-2.803-.839-4.572 0-2.007.324-3.641.971-4.905.648-1.264 1.517-2.2 2.606-2.81 1.09-.607 2.299-.91 3.626-.91.837 0 1.634.103 2.393.308a8.914 8.914 0 0 1 2.156.9v1.825l-.474.237a6.715 6.715 0 0 0-1.777-1.019c-.679-.268-1.461-.403-2.346-.403-.963 0-1.824.213-2.582.64-.759.427-1.356 1.133-1.792 2.118-.432.989-.649 2.328-.649 4.019 0 2.337.446 4.035 1.337 5.094.894 1.058 2.217 1.587 3.971 1.587.742 0 1.44-.1 2.094-.298a6.414 6.414 0 0 0 1.933-.981l.474.237v1.824a8.878 8.878 0 0 1-2.085.796c-.742.18-1.54.27-2.393.27zm17.225-.284h-9.69l.237-1.896V29.938l-.237-1.895h9.69v2.085l-1.421-.237h-6.018v5.425h6.7v1.943l-1.422-.19h-5.278v5.71h6.018l1.421-.236v2.085z" fill="#fff"/></g></g></g></g><g clip-path="url(#ni)"><g clip-path="url(#nj)" fill="#fff"><path d="M88.245 23.708h-4.752a.494.494 0 1 1 0-.99h4.752a.494.494 0 1 1 0 .99zm.477-13.132H61.097a.495.495 0 1 1 0-.99h27.625a.494.494 0 0 1 0 .99z"/><path d="M72.087 23.708h-8.92a.494.494 0 0 1-.494-.495V10.082c0-.274.221-.495.494-.495h8.92c.274 0 .495.221.495.495v13.131a.494.494 0 0 1-.495.495zm-8.425-.99h7.93V10.576h-7.93v12.142z"/><path d="M72.087 15.295h-8.92a.494.494 0 1 1 0-.99h8.92a.494.494 0 1 1 0 .99zm0 4.74h-8.92a.494.494 0 1 1 0-.99h8.92a.495.495 0 1 1 0 .99zm14.551 3.258a.494.494 0 0 1-.495-.494V10.412a.494.494 0 1 1 .99 0v12.386a.494.494 0 0 1-.495.495zm-1.608 0a.494.494 0 0 1-.494-.494V10.412a.494.494 0 1 1 .99 0v12.386a.494.494 0 0 1-.495.495z"/><path d="M64.872 23.293a.494.494 0 0 1-.494-.494V19.54a.494.494 0 1 1 .989 0v3.258a.494.494 0 0 1-.495.494zm5.566 0a.494.494 0 0 1-.495-.494V19.54a.494.494 0 1 1 .99 0v3.258a.494.494 0 0 1-.496.494zM68.5 12.78h-2.062a.494.494 0 1 1 0-.99H68.5a.495.495 0 1 1 0 .99zm0 4.782h-2.062a.495.495 0 1 1 0-.99H68.5a.494.494 0 1 1 0 .99zm15.222-9.057h-10.13a.494.494 0 0 1-.496-.495V1.89c0-.275.222-.495.495-.495h10.132c.273 0 .494.22.494.494V8.01a.494.494 0 0 1-.495.495zm-9.636-.99h9.142V2.384h-9.142v5.131z"/><path d="M80.806 10.576h-4.298a.494.494 0 0 1-.428-.74l1.185-2.071a.491.491 0 0 1 .674-.184c.238.135.32.438.184.674l-.761 1.332h2.59l-.76-1.332a.493.493 0 0 1 .183-.674.492.492 0 0 1 .674.184l1.186 2.071a.493.493 0 0 1-.43.74zm2.916-3.774h-10.13a.494.494 0 1 1 0-.989h10.13a.494.494 0 1 1 0 .99zm-15.346 3.463h-2.474c-.624 0-1.113-.615-1.113-1.4 0-.787.489-1.403 1.113-1.403h2.474c.624 0 1.113.616 1.113 1.402 0 .786-.49 1.401-1.114 1.401zm-.023-1.817-2.45.004c-.022.017-.124.167-.124.412 0 .244.102.394.145.416l2.436-.004c.047-.032.14-.179.14-.411 0-.246-.103-.396-.147-.417z"/><path d="M67.139 8.451a.495.495 0 0 1-.475-.357l-.866-3.008a.492.492 0 0 1 .023-.337l1.354-3.06a.493.493 0 0 1 .652-.252c.25.11.363.402.252.651l-1.281 2.897.816 2.834a.495.495 0 0 1-.475.632z"/><path d="M68.214 4.1a.49.49 0 0 1-.444-.273c-.428-.852-1.32-2.627.545-3.565A2.223 2.223 0 0 1 69.314 0c1.207 0 1.796 1.174 2.187 1.952a.495.495 0 0 1-.22.664l-2.845 1.432a.492.492 0 0 1-.222.052zm1.1-3.11a1.28 1.28 0 0 0-.554.155c-.736.371-.739.86-.319 1.793l1.946-.98c-.309-.558-.63-.968-1.073-.968z"/></g></g><path d="M149.692 21.782h-57.45v1.547h57.45v-1.547zm-92.115 0H.126v1.547h57.45v-1.547zm92.115-3.094h-57.45v1.547h57.45v-1.547zm-92.115 0H.126v1.547h57.45v-1.547z" fill="#fff"/></g></g></g></g><defs><clipPath id="na"><path fill="#fff" d="M0 0h150v45H0z"/></clipPath><clipPath id="nb"><path fill="#fff" transform="translate(-.09 -.043)" d="M0 0h150v45H0z"/></clipPath><clipPath id="nc"><path fill="#fff" transform="translate(.126)" d="M0 0h149.566v44.912H0z"/></clipPath><clipPath id="nd"><path fill="#fff" transform="translate(.126)" d="M0 0h149.566v44.912H0z"/></clipPath><clipPath id="ne"><path fill="#fff" transform="translate(.126 27.757)" d="M0 0h149.566v17.155H0z"/></clipPath><clipPath id="nf"><path fill="#fff" transform="translate(.126 27.757)" d="M0 0h149.566v17.155H0z"/></clipPath><clipPath id="ng"><path fill="#fff" transform="translate(.126 27.757)" d="M0 0h149.566v17.155H0z"/></clipPath><clipPath id="nh"><path fill="#fff" transform="translate(.126 27.757)" d="M0 0h149.566v17.155H0z"/></clipPath><clipPath id="ni"><path fill="#fff" transform="translate(57.577)" d="M0 0h34.665v23.708H0z"/></clipPath><clipPath id="nj"><path fill="#fff" transform="translate(60.602)" d="M0 0h28.614v23.708H0z"/></clipPath></defs></svg><svg fill="none" viewBox="0 0 300 90" id="logo-1" xmlns="http://www.w3.org/2000/svg"><path d="M102.621 56.417h4.718c1.86 0 3.445.225 4.755.675 1.31.454 2.463 1.305 3.461 2.552 1.493 1.912 2.241 4.25 2.241 7.012 0 3.374-.878 6.012-2.627 7.909-1.754 1.9-4.235 2.85-7.45 2.85H97.212v-28.61h5.41l-.001 7.612zm0 4.504v11.994h3.781c1.022 0 1.888-.1 2.597-.3.708-.2 1.292-.525 1.753-.98.461-.454.794-1.06 1.004-1.818.209-.758.315-1.686.315-2.78 0-2.265-.487-3.85-1.456-4.758-.972-.905-2.52-1.358-4.647-1.358h-3.347zm18.427 16.494v-28.61h5.685v28.61h-5.685zm18.363 0c-2.979 0-5.155-.59-6.528-1.774-1.371-1.18-2.057-3.153-2.057-5.917V56.417h5.41v12.87c0 .69.053 1.26.159 1.712.107.452.291.811.555 1.075.262.268.633.452 1.107.56.475.104 1.069.159 1.783.159h4.434V56.415h5.412v20.999h-10.275zm24.176 0c-3.45 0-6.044-.877-7.782-2.63-1.739-1.754-2.607-4.37-2.607-7.85 0-3.453.868-6.071 2.607-7.85 1.737-1.779 4.333-2.67 7.782-2.67h7.96V60.8h-7.216c-.862 0-1.612.045-2.254.138-.641.093-1.162.286-1.568.578-.406.292-.712.697-.922 1.214-.211.518-.328 1.19-.353 2.012h12.311v4.382h-12.311c.025.877.137 1.568.333 2.073.196.504.496.896.902 1.175.406.278.921.459 1.549.538.627.079 1.386.12 2.274.12h7.253v4.384h-7.958zm17.11-20.998h4.716c1.861 0 3.447.225 4.757.675 1.307.454 2.462 1.305 3.46 2.552 1.494 1.912 2.24 4.25 2.24 7.012 0 3.374-.876 6.012-2.626 7.909-1.755 1.9-4.234 2.85-7.449 2.85h-10.509v-28.61h5.412l-.001 7.612zm0 4.504v11.994h3.78c1.023 0 1.889-.1 2.597-.3.707-.2 1.292-.525 1.752-.98.461-.454.795-1.06 1.005-1.818.209-.759.316-1.686.316-2.78 0-2.265-.487-3.85-1.457-4.758-.97-.905-2.52-1.358-4.646-1.358h-3.347zm27.889-4.505c2.141 0 3.643.399 4.508 1.196.861.797 1.293 2.165 1.293 4.103v3.507h-5.215v-2.71c0-.93-.178-1.505-.533-1.733-.358-.225-.984-.339-1.879-.339h-1.939v16.975h-5.413V56.416h9.178zm9.459-2.391v-5.22h5.724v5.22h-5.724zm0 23.39V56.417h5.724v20.998h-5.724zm19.095 0c-3.242 0-5.734-.95-7.472-2.85-1.738-1.898-2.604-4.534-2.604-7.909 0-2.763.747-5.1 2.24-7.013.969-1.246 2.116-2.098 3.44-2.55 1.322-.452 2.912-.676 4.776-.676h4.679v-7.61h5.411v28.609h-10.47v-.001zm5.057-16.494h-3.31c-2.125 0-3.673.453-4.645 1.358-.973.908-1.455 2.493-1.455 4.758 0 1.092.103 2.018.315 2.78.208.76.543 1.366 1.003 1.818.463.453 1.045.78 1.754.98.708.199 1.573.3 2.598.3h3.741l-.001-11.994zm29.519 15.739c0 2.842-.614 4.947-1.843 6.316-1.229 1.37-3.213 2.052-5.959 2.052h-10.705v-4.263h9.763c1.072 0 1.882-.26 2.432-.777.548-.517.823-1.254.823-2.21v-.359h-4.433c-.781 0-1.521-.012-2.213-.04a10.48 10.48 0 0 1-1.979-.258 7.17 7.17 0 0 1-1.825-.699c-.588-.32-1.17-.757-1.749-1.314-.965-.928-1.715-2.098-2.251-3.506-.536-1.409-.804-2.949-.804-4.622 0-1.674.268-3.208.804-4.602.536-1.395 1.286-2.556 2.251-3.486.996-.983 2.106-1.64 3.336-1.974 1.229-.332 2.703-.498 4.43-.498h9.92v20.243h.002v-.003zm-5.488-3.59V60.918h-2.822c-.916 0-1.719.026-2.409.08a4.326 4.326 0 0 0-1.906.598c-.886.532-1.514 1.229-1.879 2.092-.368.865-.548 1.958-.548 3.288 0 1.195.13 2.192.39 2.989.262.797.668 1.422 1.213 1.873.552.451 1.25.77 2.098.956.851.185 1.863.278 3.04.278h2.823zm19.251 4.345c-3.45 0-6.046-.877-7.784-2.63-1.738-1.754-2.608-4.37-2.608-7.85 0-3.453.87-6.071 2.608-7.85 1.738-1.78 4.334-2.67 7.784-2.67h7.96V60.8h-7.213c-.862 0-1.614.045-2.256.138-.639.093-1.164.286-1.568.578-.406.292-.709.697-.921 1.214-.211.519-.329 1.19-.356 2.012h12.312v4.382h-12.312c.028.877.138 1.568.334 2.073.199.504.497.896.903 1.175.406.278.924.459 1.548.538.628.079 1.385.12 2.274.12h7.253v4.384h-7.958z" fill="#222"/><path d="M200.267 8.289C132.066-4.984 49.399 13.004 4.419 77.946h47.5C90.928 22.88 141.863 1.62 200.267 8.289z" fill="#222"/><path d="M110.406 29.569c51.804-25.575 114.787-13.954 147.275 20.22h22.639C226.783 6.083 161.672-1.57 110.406 29.568z" fill="#222"/><path d="M200.267 8.29C141.863 1.62 90.927 22.88 51.918 77.945h5.053C74.854 56.36 90.119 41.074 110.404 29.57 161.671-1.57 226.783 6.084 280.318 49.79h4.986c-20.348-20.363-50.877-34.85-85.037-41.5z" fill="#222"/></svg><svg fill="none" viewBox="0 0 300 90" id="logo-2" xmlns="http://www.w3.org/2000/svg"><path fill-rule="evenodd" clip-rule="evenodd" d="M86.21 88.523c-13.531-4.454-13.764-24.337-9.785-39.765 2.25-8.664 5.572-14.397 9.177-17.657 2.807-2.638 6.224-4.414 8.61-4.002-1.962-1.567-4.96-1.238-5.803-1.112-7.49 1.071-17.18 9.774-20.97 27.967-2.808 13.57.936 26.277 8.894 31.846 2.901 1.898 5.993 3.135 9.876 2.723zm158.638-26.278c-7.771-1.03-15.914-2.97-23.734-2.887-8.24.041-15.447 2.68-20.081 4.993 5.337-5.774 10.251-11.511 18.957-11.882 9.267-.414 16.386 5.239 22.33 8.499.89.496 1.682.866 2.528 1.277z" fill="#222"/><path fill-rule="evenodd" clip-rule="evenodd" d="M132.692 48.426c-3.462 1.488-5.897 4.662-7.584 7.883-1.963 3.668-5.523 10.971-7.959 15.466-6.224 11.675-12.778 16.502-22 17.945-4.538.698-9.363.08-14.277-1.734 5.01.866 8.38.497 12.125-.99 7.535-2.928 12.216-10.477 17.086-20.336 5.054-10.231 11-17.534 17.88-18.36 1.686-.203 3.374-.285 4.729.127z" fill="#222"/><path fill-rule="evenodd" clip-rule="evenodd" d="M202.812 62.41c-5.803 4.827-11.748 7.963-18.162 7.963-10.251 0-16.009-4.126-24.152-11.633-3.699-3.463-10.349-10.024-16.712-11.55-6.04-1.443-14.322-.084-18.066 1.61 4.632-1.075 7.021-.536 9.218.41 2.202.95 6.18 3.55 8.521 5.86 7.444 7.258 15.263 13.942 20.83 16.747 6.414 3.215 17.882 6.394 27.288.947 4.543-2.637 8.007-6.517 11.235-10.354zm38.851-1.816c.187.125.423.252.702.414 19.475 10.726 33.329 5.899 40.445 2.598-3.883-1.196-8.8-4.124-10.485-6.886-4.682 4.454-11.047 6.022-17.366 5.939-2.906-.041-8.755-.62-13.296-2.065zM51.805 2.638c-.234 0-1.126 0-1.594.166-5.617 2.146-10.484 15.8-9.267 30.36 1.543 18.028 8.66 28.546 19.565 33.497 9.83 4.454 19.336 4 26.167 1.278 9.362-3.672 17.461-12.09 18.067-25.081.234-5.692-1.403-11.096-4.96-14.232-2.714-2.353-7.395-3.96-13.48-2.186 3.322-.742 6.225-.165 8.097 1.032 3.042 1.857 4.447 5.692 4.636 10.972.14 5.695-2.017 18.316-13.296 23.184-9.596 4.126-22.093.083-30.193-10.436-7.534-9.695-8.566-22.36-8.52-29.372.142-10.726 2.531-17.902 4.778-19.182zM.269 65.67c-.75 4.29 0 10.104 3.133 14.068 4.309 5.4 9.692 6.927 14.889 6.35-5.431-1.691-8.425-5.362-9.69-10.804-.797-3.385-.606-7.344.373-10.89C6.494 65.71 3.03 66.163.27 65.67z" fill="#222"/><path fill-rule="evenodd" clip-rule="evenodd" d="M26.482 86.707C41.084 84.894 54.659 66.7 61.447 43.6 67.909 21.572 63.743.618 55.924.534c-1.778 0-4.025.865-6.788 2.805a5.575 5.575 0 0 1 1.777-.658c3.42-.413 4.915 3.628 5.806 10.229.982 6.97.14 21.367-6.414 37.701-7.584 18.978-20.83 33.291-30.142 35.189-2.718.536-5.48.577-8.103-.165 3.747 1.404 8.57 1.816 14.422 1.07zm110.422-44.631 4.262-17.699h-10.065l-4.261 17.7h-12.265L124.733 0h12.266l-3.701 15.47h10.065L147.062 0h12.214l-10.108 42.076h-12.264zm54.486-21.534-2.155 8.952c-1.45 6.35-1.495 10.313-.235 12.58h-10.948c-.234-1.073-.286-2.228-.329-3.343-.608.826-1.544 1.61-2.715 2.352V34.07c1.121-.824 1.823-2.186 2.152-3.546l3.044-13.077c-1.92-.412-3.746 0-5.196 1.072V10.93a29.633 29.633 0 0 1 5.757-.785c4.87-.207 10.724.742 13.341 1.856-1.031 2.188-2.105 5.53-2.716 8.541zm-16.382 20.54V34.07c-.752.535-1.637.867-2.668.787-1.544-.084-2.574-1.322-2.574-3.26 0-3.88 1.827-9.571 4.307-12.21.283-.332.607-.618.935-.868V10.93c-3.648.865-7.02 2.432-9.688 4.784-4.588 4.041-7.489 9.57-7.864 16.254v1.774c.282 5.569 3.841 9.445 10.718 9.322 2.527-.082 4.961-.909 6.834-1.981zm40.069.994H201.97l-3.887-29.907 11.845-1.733.936 10.602c.372 4.207.467 5.94.517 9.239h.138c1.356-3.218 2.248-5.446 4.587-9.9l4.913-9.445h12.312l-18.254 31.144zm33.234-6.56c2.763-.039 6.368-1.03 8.941-3.01l2.431 6.805c-3.696 2.392-7.86 3.424-11.372 3.712v-7.506zm0-25.329c.702-.08 1.453-.08 2.245-.08 7.022 0 12.546 2.474 12.546 8.868 0 5.443-4.913 10.313-14.792 10.725v-6.394c2.477-.373 4.262-1.649 4.262-3.672 0-1.443-1.128-2.435-2.81-2.435a5.33 5.33 0 0 0-1.452.206l.001-7.218zm-6.037 21.45c-.047-.741.046-1.524.141-2.269.795.166 2.904.372 4.071.372.655 0 1.219 0 1.827-.04v-6.394c-.513.08-1.031.122-1.591.164a12.241 12.241 0 0 1-2.718-.33c.516-2.886 2.017-5.072 4.31-5.735v-7.218c-11.096 1.074-17.835 10.106-17.694 19.8.046 3.094.748 5.982 2.766 8.417 2.618 3.176 6.69 4.704 12.355 4.743.795 0 1.685-.04 2.573-.123v-7.506h-.607c-3.188-.086-5.199-1.323-5.433-3.88zm54.769 10.44c-1.268-2.269-1.221-6.231.233-12.582l2.343-9.693c1.169-4.788 0-9.614-8.475-9.655-3.93 0-7.958 1.32-10.86 3.506 0-1.197-.188-2.598-.514-3.506l-11.139 1.733c.936 2.972.651 6.6-.424 11.302l-4.541 18.896h11.797l5.103-21.122c1.403-1.485 2.993-2.31 4.913-2.31 1.967 0 2.293 1.403 1.685 3.84l-2.759 11.671c-.703 2.972-.987 6.021-.611 7.92h13.249z" fill="#222"/></svg><svg fill="none" viewBox="0 0 500 100" id="logo-3" xmlns="http://www.w3.org/2000/svg"><path d="M133.871 78.877h-10.157v-46.49h10.157v20.194h33.69V32.387h10.157v46.49h-10.157V61.298h-33.69v17.579zm72.563 1.162c-6.724 0-12.136-1.767-16.236-5.303-4.102-3.534-6.152-8.208-6.152-14.02 0-5.81 2.05-10.483 6.152-14.019 4.1-3.534 9.512-5.303 16.236-5.303 6.771 0 12.207 1.769 16.308 5.303 4.101 3.536 6.152 8.209 6.152 14.02 0 5.81-2.051 10.485-6.152 14.019-4.101 3.535-9.537 5.303-16.308 5.303zm0-7.99c3.909 0 7.057-1.041 9.442-3.124 2.384-2.081 3.577-4.818 3.577-8.208 0-3.438-1.193-6.199-3.577-8.281-2.385-2.082-5.533-3.124-9.442-3.124-3.863 0-6.986 1.053-9.37 3.16-2.385 2.107-3.577 4.856-3.577 8.245 0 3.39 1.192 6.127 3.577 8.208 2.384 2.083 5.507 3.124 9.37 3.124zm49.377 7.99c-6.724 0-12.136-1.767-16.236-5.303-4.102-3.534-6.152-8.208-6.152-14.02 0-5.81 2.05-10.483 6.152-14.019 4.1-3.534 9.512-5.303 16.236-5.303 6.771 0 12.207 1.769 16.308 5.303 4.101 3.536 6.152 8.209 6.152 14.02 0 5.81-2.051 10.485-6.152 14.019-4.101 3.535-9.537 5.303-16.308 5.303zm0-7.99c3.91 0 7.057-1.041 9.442-3.124 2.384-2.081 3.577-4.818 3.577-8.208 0-3.438-1.193-6.199-3.577-8.281-2.385-2.082-5.532-3.124-9.442-3.124-3.863 0-6.986 1.053-9.37 3.16-2.385 2.107-3.576 4.856-3.576 8.245 0 3.39 1.191 6.127 3.576 8.208 2.384 2.083 5.507 3.124 9.37 3.124zm41.224 7.554c-4.397 0-6.907-2.045-8.261-3.905l-.078-.11c-1.311-1.853-2.351-4.27-2.389-9.488l-.001-16.061h-5.151v-7.482h6.581v-10.17h8.727v10.17h10.299v7.481h-10.299v13.584c-.076 4.059.563 5.538 1.533 6.522 1.702 1.725 6.9.556 8.766-.653v7.871c-2.176 1.537-6.104 2.24-9.727 2.24zm35.609.436c-6.343 0-12.732-.944-19.17-2.833v-8.281c5.389 2.083 11.23 3.124 17.524 3.124l.743-.003c4.143-.03 7.138-.32 8.985-.87 1.955-.58 2.933-1.62 2.933-3.122 0-1.405-1.085-2.385-3.254-2.942-2.067-.53-4.566-.874-7.497-1.031l-.443-.023a110.852 110.852 0 0 1-9.37-.835c-3.124-.41-5.771-1.417-7.94-3.014-2.17-1.599-3.254-3.85-3.254-6.756 0-3.97 1.883-6.974 5.65-9.008 3.766-2.034 8.893-3.05 15.379-3.05 5.101 0 11.062.678 17.882 2.034v7.99c-5.866-1.259-11.469-1.889-16.809-1.889-8.107 0-12.16 1.26-12.16 3.778 0 1.26 1.096 2.143 3.29 2.651 2.078.482 4.562.823 7.454 1.022l.486.032c3.099.194 6.21.52 9.334.98 3.123.46 5.781 1.514 7.975 3.16 2.193 1.647 3.291 3.947 3.291 6.9 0 4.069-1.86 7.083-5.579 9.044-3.72 1.961-8.87 2.942-15.45 2.942zm59.429-37.482h10.157v36.32h-11.158l1.431-14.964h-.573c-1.67 10.75-7.535 16.126-17.596 16.126-5.15-.098-8.917-1.804-11.301-5.121-2.342-3.258-3.534-8.653-3.576-16.186l-.001-16.175h10.158v14.528c0 5.473.762 9.37 2.288 11.694 1.526 2.325 4.029 3.487 7.511 3.487 3.863 0 6.938-1.79 9.227-5.375 2.237-3.502 3.38-8.137 3.431-13.906l.002-10.428zm23.942-3.49c-1.955 0-3.481-.497-4.577-1.49-1.097-.992-1.645-2.458-1.645-4.395 0-1.937.548-3.389 1.645-4.358 1.096-.969 2.622-1.453 4.577-1.453 2.004 0 3.565.485 4.686 1.453 1.12.97 1.681 2.421 1.681 4.358 0 3.922-2.123 5.884-6.367 5.884zm5.223 39.81H411.08v-36.32h10.158v36.32zm57.232 1.162c-6.486 0-11.695-1.767-15.629-5.303-3.934-3.534-5.901-8.208-5.901-14.02 0-5.81 1.967-10.483 5.901-14.019 3.934-3.534 9.143-5.303 15.629-5.303 6.39 0 11.552 1.515 15.486 4.54 3.858 2.97 5.87 6.857 6.036 11.666l.008.348v5.892h-33.332c.572 2.955 2.086 5.086 4.542 6.393 2.456 1.307 6.068 1.961 10.836 1.961l.675-.005c5.836-.074 8.592-1.057 11.557-2.174l.284-.117c.945-.4 3.571-1.572 3.864-1.7v8.282c-3.576 1.405-6.7 2.349-9.37 2.833-2.671.484-6.199.726-10.586.726zm-12.017-21.21 23.891-.582c-.143-3.196-1.17-5.484-3.076-6.865-1.908-1.38-4.84-2.07-8.798-2.07-3.815 0-6.688.74-8.619 2.216-1.931 1.478-3.064 3.91-3.398 7.3zm-22.561 20.774c-4.396 0-6.906-2.045-8.26-3.905l-.078-.11c-1.311-1.853-2.351-4.27-2.389-9.488l-.002-16.061h-5.15v-7.482h6.581v-10.17h8.726v10.17h10.3v7.481h-10.3v13.584c-.075 4.059.564 5.538 1.534 6.522 1.702 1.725 6.9.556 8.766-.653v7.871c-2.176 1.537-6.104 2.24-9.728 2.24zM9.821.827c.215-.617.86-.953 1.472-.783l.087.027L44.35 12.8c1.559-.26 3.106-.39 4.629-.38 5.754.041 11.188 1.353 16.637 4.622l31.713-2.666a1.02 1.02 0 0 1 .923.501 1.053 1.053 0 0 1-.269 1.378l-.09.06-19.81 11.719c.32.372.64.753.962 1.142C88.07 40.106 93.56 55.92 96.183 65.064a18.372 18.372 0 0 1-2.722 15.768c-5.894 8.192-18.463 19.344-43.123 19.166-26.922-.19-40.828-13.792-47.51-22.151A13.157 13.157 0 0 1 .832 65.09l.5-1.327c3.943-10.414 11.288-28.5 17.17-35.225 3.543-4.044 7.627-7.536 11.942-10.226L10.194 2.197a1.252 1.252 0 0 1-.373-1.37z" fill="#222"/><path d="M49.572 71.62a.214.214 0 0 1 .279-.125 16.691 16.691 0 0 0 14.13 1.275l.268-.1a.203.203 0 0 1 .243.052.211.211 0 0 1 .01.259l-5.901 6.6a1.015 1.015 0 0 1-1.43.084c-2.181-1.905-5.826-5.883-7.573-7.837a.222.222 0 0 1-.026-.208zm8.193-33.8c15.261-10.782 23.534-1.422 28.176 8.961 3.354 7.483 4.542 21.494-6.345 23.64-8.34 1.652-16.045-6.928-21.744-14.939a1.788 1.788 0 0 0-2.92-.008l-.231.328C50.8 61.357 41.497 76.459 27.73 72.637c-13.285-3.694-16.204-18.869-10.679-29.359 8.175-15.818 20.118-20.972 40.713-5.457zm-2.17 21.707a1.37 1.37 0 0 1 1.885-.034l.077.075 7.293 8.44a.756.756 0 0 1-.215 1.16 16.219 16.219 0 0 1-7.078 1.814c-3.243-.027-6.561-2.213-7.92-3.218l-.055-.045a.759.759 0 0 1-.111-.996l.05-.064 5.992-7.059.01.003c.024-.026.048-.052.073-.076z" fill="#fff"/><path d="m75.475 47.146.084.138c1.765 2.782.975 6.49-1.765 8.282-2.74 1.792-6.39.99-8.155-1.792-1.716-2.706-1.018-6.294 1.555-8.139l.142-.098a5.649 5.649 0 0 1 7.96 1.339 5.7 5.7 0 0 1 .18.27zm-36.891-3.192c-3.071 1.063-4.598 4.375-3.683 7.46 1.047 3.119 4.309 4.67 7.346 3.74 3.071-1.063 4.573-4.417 3.683-7.46.008-.02-.012-.078-.05-.147-.944-3.002-3.961-4.588-6.834-3.76-.132-.033-.297.067-.462.167z" fill="#222"/></svg><svg fill="none" viewBox="0 0 300 150" id="logo-4" xmlns="http://www.w3.org/2000/svg"><path d="M0 150h156.82v-18.943h-9.861v9.511H9.861V9.432H146.96V86.4h9.861V0H0v150z" fill="#222"/><path d="M44.297 91.04h-9.861v35.454h9.86V91.04zm25.4 16.349L59.59 91.04H49.23v35.376h9.376v-18.394h.163l11.42 18.394h9.042V91.04h-9.452v16.349h-.082zM84.082 91.04v35.454h12.492c11.754 0 17.344-2.83 17.344-17.688 0-14.622-5.59-17.609-17.426-17.609l-12.41-.157zm19.729 17.766c0 8.962-2.631 9.511-6.329 9.511h-3.369v-18.63h3.041c4.108 0 6.657.158 6.657 9.119zM127.23 91.04h-9.861v35.454h9.861V91.04zm81.786-.476c-13.81 0-16.271 8.648-16.271 18.159 0 9.432 2.384 18.158 16.271 18.158 13.729 0 16.19-8.647 16.19-18.158 0-9.433-2.385-18.159-16.19-18.159zm0 27.989c-5.426 0-6.164-3.615-6.164-9.432 0-5.818.82-9.354 6.164-9.354 5.426 0 6.164 3.615 6.164 9.354 0 5.817-.826 9.432-6.164 9.432zm69.369-27.989c-13.811 0-16.272 8.648-16.272 18.159 0 9.432 2.385 18.158 16.272 18.158 13.728 0 16.189-8.647 16.189-18.158-.082-9.433-2.467-18.159-16.189-18.159zm0 27.989c-5.426 0-6.164-3.615-6.164-9.432 0-5.818.82-9.354 6.164-9.354 5.426 0 6.164 3.615 6.164 9.354-.082 5.817-.82 9.432-6.164 9.432zm19.312 2.281c-1.81 0-2.302 1.177-2.302 2.752 0 1.496.41 2.673 2.302 2.673 1.811 0 2.303-1.177 2.303-2.673 0-1.575-.492-2.752-2.303-2.752zm0 4.954c-1.476 0-1.892-1.02-1.892-2.281 0-1.255.328-2.281 1.892-2.281 1.565 0 1.893 1.02 1.893 2.281-.082 1.334-.41 2.281-1.893 2.281z" fill="#222"/><path d="M298.934 122.958c0-.628-.247-1.02-1.067-1.02h-1.312v3.222h.738v-1.177h.41l.492 1.177h.739l-.575-1.255c.411-.163.575-.477.575-.947zm-1.073.47h-.574v-.941h.574c.328 0 .41.157.41.471 0 .313-.164.47-.41.47zm-124.108-10.614h6.411v.628c0 3.85.164 5.66-4.77 5.66-4.523 0-6.164-1.967-6.164-9.981 0-8.334 2.549-9.355 6.492-9.355 2.959 0 4.934.785 6.656 1.654l5.262-7.942c-2.795-1.732-6.902-2.83-11.508-2.83-12.82 0-16.851 5.896-16.851 18.159 0 10.693 2.959 18.158 15.123 18.158 2.138 0 4.025-.157 5.59-.392h9.123V105.27h-14.139l-1.225 7.544zm69.37 0h6.41v.628c0 3.85.164 5.66-4.77 5.66-4.523 0-6.164-1.967-6.164-9.981 0-8.334 2.549-9.355 6.492-9.355 2.959 0 4.934.785 6.657 1.654l5.261-7.942c-2.795-1.732-6.902-2.83-11.508-2.83-12.82 0-16.851 5.896-16.851 18.159 0 10.693 2.959 18.158 15.123 18.158 2.139 0 4.025-.157 5.59-.392h9.123V105.27h-14.303l-1.06 7.544zM156.82 99.688V91.04h-24.574v35.376h24.574v-8.334h-14.877v-5.347h9.786l1.23-8.412h-11.016v-4.635h14.877z" fill="#222"/></svg><svg fill="none" viewBox="0 0 300 90" id="logo-5" xmlns="http://www.w3.org/2000/svg"><path d="M15.358.069v54.063c0 5.708 2.647 11.182 7.36 15.218 4.712 4.036 11.103 6.304 17.767 6.304s13.056-2.268 17.768-6.304c4.712-4.036 7.36-9.51 7.36-15.218V0H80.97v87.671H65.773v-8.126c-5.629 4.345-12.6 7.207-20.08 8.244-7.48 1.037-15.151.205-22.093-2.397S10.74 78.528 6.554 73.118C2.368 67.708.093 61.38 0 54.89V.07h15.358zM92.388 0h14.795v31.956c5.449-4.351 12.264-7.242 19.607-8.318 7.343-1.075 14.893-.288 21.72 2.265 6.827 2.553 12.633 6.76 16.704 12.104 4.071 5.344 6.228 11.59 6.206 17.971-.021 6.38-2.221 12.616-6.327 17.94-4.107 5.323-9.941 9.502-16.786 12.021-6.844 2.52-14.399 3.27-21.734 2.158-7.336-1.112-14.131-4.037-19.551-8.414v7.988H92.388V0zm40.204 77.96c5.089 0 10.063-1.292 14.295-3.713 4.231-2.422 7.529-5.864 9.477-9.89 1.947-4.028 2.457-8.459 1.464-12.734-.993-4.275-3.444-8.202-7.042-11.284-3.599-3.082-8.183-5.181-13.174-6.032-4.992-.85-10.165-.413-14.867 1.255-4.701 1.668-8.72 4.492-11.547 8.117-2.828 3.624-4.337 7.885-4.337 12.243 0 5.845 2.711 11.45 7.537 15.584 4.825 4.133 11.37 6.455 18.194 6.455zm84.347-55.44c9.895 0 19.385 3.498 26.382 9.723 6.996 6.225 10.927 14.669 10.927 23.473v4.132h-60.627c.537 4.456 2.696 8.654 6.172 12 3.476 3.347 8.093 5.672 13.198 6.648 5.104.974 10.437.55 15.244-1.215 4.807-1.765 8.844-4.78 11.54-8.618l10.694 6.75c-3.824 4.749-9.006 8.58-15.051 11.125s-12.75 3.72-19.477 3.414c-6.726-.306-13.248-2.085-18.944-5.165-5.695-3.08-10.373-7.36-13.587-12.43-3.214-5.07-4.857-10.762-4.772-16.531.086-5.769 1.896-11.423 5.26-16.421 3.363-5 8.166-9.176 13.951-12.132 5.784-2.956 12.357-4.592 19.09-4.753zm-23.157 27.273h45.43c-2.493-9.78-11.659-16.253-22.675-16.253-10.855 0-20.102 6.542-22.755 16.253zm100.027-14.738c-4.388.06-8.58 1.791-11.687 4.825-3.107 3.034-4.885 7.133-4.958 11.428v36.295h-14.795V23.76h14.634v7.92c3.619-5.165 9.649-8.402 17.851-8.402H300v11.777h-6.191z" fill="#222"/></svg><svg fill="none" viewBox="0 0 300 90" id="logo-6" xmlns="http://www.w3.org/2000/svg"><path d="M46.617 0C20.871 0 0 20.146 0 45c0 24.853 20.87 45 46.617 45 25.747 0 46.618-20.147 46.618-45 0-24.854-20.871-45-46.618-45zm21.235 65.028c-.214.327-.493.61-.82.832-.328.223-.698.38-1.09.465a3.15 3.15 0 0 1-2.298-.391c-7.886-4.841-16.858-6.232-24.425-6.229C31.12 59.7 24.718 61.3 23.372 61.67c-.193.052-.26.073-.26.073h.001a3.148 3.148 0 0 1-2.324-.21 2.97 2.97 0 0 1-1.488-1.736 2.852 2.852 0 0 1 .218-2.243 3.027 3.027 0 0 1 1.797-1.437c.185-.05 7.713-2.294 17.904-2.298 8.306.003 18.464 1.497 27.695 7.149a2.947 2.947 0 0 1 1.34 1.843 2.86 2.86 0 0 1-.403 2.217zm6.054-12.449a3.616 3.616 0 0 1-.963 1.04 3.76 3.76 0 0 1-1.302.604 3.83 3.83 0 0 1-2.806-.386c-10.414-5.944-21.143-7.558-29.729-7.56-8.694-.003-15.127 1.672-16.431 2.046a6.54 6.54 0 0 0-.237.069 3.82 3.82 0 0 1-2.798-.244 3.611 3.611 0 0 1-1.816-2.07 3.462 3.462 0 0 1 .212-2.705 3.666 3.666 0 0 1 2.119-1.782c.247-.072 7.9-2.456 18.95-2.461 9.526-.002 21.648 1.793 33.498 8.555a3.59 3.59 0 0 1 1.701 2.186 3.466 3.466 0 0 1-.398 2.709zm2.854-11.823c-.74 0-1.49-.179-2.18-.555-11.597-6.328-23.915-8.101-33.975-8.1C30.06 32.099 22.083 34.06 20.44 34.5c-.235.064-.305.085-.305.085a4.593 4.593 0 0 1-3.384-.316 4.413 4.413 0 0 1-1.341-1.06 4.244 4.244 0 0 1-.82-1.475 4.148 4.148 0 0 1 .328-3.267 4.326 4.326 0 0 1 1.098-1.296c.45-.358.97-.627 1.528-.79.28-.077 9.721-2.848 23.06-2.856 11.108.002 24.995 1.937 38.345 9.208a4.343 4.343 0 0 1 1.91 2.066 4.15 4.15 0 0 1 .204 2.762 4.282 4.282 0 0 1-1.587 2.306 4.546 4.546 0 0 1-2.716.89zm85.237-7.085c-8.298 0-14.7 7.341-14.7 16.398 0 9.055 5.771 16.397 14.7 16.397 8.299 0 15.028-7.342 15.028-16.397 0-9.057-6.728-16.398-15.028-16.398zm-1.905 25.648c-4.919 0-8.657-4.142-8.657-9.25 0-5.109 3.737-9.25 8.657-9.25 5.315 0 8.658 4.141 8.658 9.25 0 5.108-3.52 9.25-8.658 9.25z" fill="#222"/><path d="M143.432 34.407h8.276v6.044l-1.852 5.887v8.198l1.906 6.78v13.823h-8.385l.055-40.732zm53.193-.771c-9.541 0-17.277 7.34-17.277 16.397 0 9.057 7.736 16.398 17.277 16.398 9.542 0 17.278-7.34 17.278-16.398 0-9.056-7.735-16.397-17.278-16.397zm-.035 25.858c-5.072 0-9.184-4.205-9.184-9.39 0-5.186 4.112-9.39 9.184-9.39 5.071 0 9.182 4.204 9.182 9.39 0 5.185-4.11 9.39-9.182 9.39zm41.85-25.157h8.421v31.604h-8.421V34.337zm4.356-3.924c2.846 0 5.153-2.228 5.153-4.975 0-2.748-2.307-4.975-5.153-4.975-2.847 0-5.154 2.227-5.154 4.975 0 2.747 2.307 4.975 5.154 4.975zm19.672 2.382v33.041h-8.421V33.678s-.747-11.626 10.527-11.395c0 0 3.338.07 6.025 1.051v6.783s-2.103-.802-4.936-.826c0 0-3.239-.1-3.195 3.504zm-35.68 23.119V26.066h-8.42v31.012s-.632 9.901 10.527 9.242c0 0 3.223 0 6.025-1.712v-6.58s-2.103 1.17-4.936 1.192c0 0-3.315.085-3.196-3.306z" fill="#222"/><path d="m291.368 34.337-7.774 21.723-8.652-21.723h-24.743v7.007h18.875l10.382 23.686c-.866 3.574-3.848 3.364-3.848 3.364-2.106 0-4.428-1.402-4.428-1.402l-2.831 5.887c2.274 2.042 7.84 2.312 7.84 2.312 8.276 0 10.671-7.848 10.671-7.848L300 34.337h-8.632zm-76.933.019h20.71v7.003h-20.71v-7.003zm-79.443 1.032s-5.445-4.204-11.253-4.204c0 0-5.878-.294-6.17 3.994 0 0-.3 3.618 3.967 4.654 0 0 10.462 3.007 13.09 4.239 0 0 6.412 2.592 6.028 10.589 0 0 .045 11.628-15.608 11.772 0 0-10.744.281-17.931-7.077l5.082-5.536s5.662 5.326 13.284 5.326c0 0 6.083.196 6.752-4.205 0 0 .76-3.9-5.009-5.186 0 0-8.929-2.172-11.833-3.573 0 0-6.639-2.309-6.388-10.582 0 0 .311-11.9 15.245-11.702 0 0 8.643-.273 15.245 5.465l-4.501 6.026z" fill="#222"/></svg><svg fill="none" viewBox="0 0 10 10" id="open-accordion" xmlns="http://www.w3.org/2000/svg"><path d="M9.354.994 2.207 8.14H7.5a.5.5 0 1 1 0 1H1a.5.5 0 0 1-.5-.5v-6.5a.5.5 0 0 1 1 0v5.293L8.646.286a.5.5 0 0 1 .708.708z" fill="#fff"/></svg><svg fill="none" viewBox="0 0 14 13" id="twitter" xmlns="http://www.w3.org/2000/svg"><path d="M13.462 2.009A.5.5 0 0 0 13 1.7h-1.902A3.041 3.041 0 0 0 8.506.2a2.932 2.932 0 0 0-2.11.856A2.994 2.994 0 0 0 5.5 3.2v.38C2.984 2.918.926.87.904.849a.5.5 0 0 0-.853.308C-.22 4.142.649 6.14 1.426 7.292c.378.569.84 1.078 1.367 1.512C1.841 9.9.343 10.476.326 10.482a.5.5 0 0 0-.24.745c.047.07.234.316.692.546.566.283 1.314.427 2.222.427 4.417 0 8.107-3.401 8.484-7.778l1.87-1.868a.5.5 0 0 0 .108-.545zm-2.813 1.838a.5.5 0 0 0-.145.321C10.25 8.111 6.955 11.2 3 11.2c-.66 0-1.125-.087-1.451-.192.72-.391 1.722-1.063 2.367-2.03a.5.5 0 0 0-.166-.71c-.03-.017-2.744-1.647-2.75-6C2 3.08 3.828 4.34 5.917 4.691A.5.5 0 0 0 6.5 4.2v-1a2 2 0 0 1 .6-1.433A1.934 1.934 0 0 1 8.494 1.2c.791.01 1.53.492 1.84 1.2a.501.501 0 0 0 .458.3h1l-1.143 1.147z" fill="#000"/></svg></svg>