<svg width="14" height="13" fill="none" xmlns="http://www.w3.org/2000/svg"><path d="M13.462 2.009A.5.5 0 0013 1.7h-1.902A3.041 3.041 0 008.506.2a2.932 2.932 0 00-2.11.856A2.994 2.994 0 005.5 3.2v.38C2.984 2.918.926.87.904.849a.5.5 0 00-.853.308C-.22 4.142.649 6.14 1.426 7.292c.378.569.84 1.078 1.367 1.512C1.841 9.9.343 10.476.326 10.482a.5.5 0 00-.24.745c.047.07.234.316.692.546.566.283 1.314.427 2.222.427 4.417 0 8.107-3.401 8.484-7.778l1.87-1.868a.5.5 0 00.108-.545zm-2.813 1.838a.5.5 0 00-.145.321C10.25 8.111 6.955 11.2 3 11.2c-.66 0-1.125-.087-1.451-.192.72-.391 1.722-1.063 2.367-2.03a.5.5 0 00-.166-.71c-.03-.017-2.744-1.647-2.75-6C2 3.08 3.828 4.34 5.917 4.691A.5.5 0 006.5 4.2v-1a2 2 0 01.6-1.433A1.934 1.934 0 018.494 1.2c.791.01 1.53.492 1.84 1.2a.501.501 0 00.458.3h1l-1.143 1.147z" fill="#000"/></svg>