<?xml version="1.0" encoding="utf-8"?><svg xmlns="http://www.w3.org/2000/svg" xmlns:xlink="http://www.w3.org/1999/xlink"><symbol viewBox="0 0 15 10" id="Be" xmlns="http://www.w3.org/2000/svg">
    <path d="M9 1.7a.5.5 0 01.5-.5h4a.5.5 0 010 1h-4a.5.5 0 01-.5-.5zM7.5 6.575A2.625 2.625 0 014.875 9.2H1a.5.5 0 01-.5-.5v-8A.5.5 0 011 .2h3.625a2.375 2.375 0 011.603 4.125A2.625 2.625 0 017.5 6.575zm-6-2.625h3.125a1.375 1.375 0 000-2.75H1.5v2.75zm5 2.625A1.625 1.625 0 004.875 4.95H1.5V8.2h3.375A1.625 1.625 0 006.5 6.575zm8-.375a.5.5 0 01-.5.5H9.562a2 2 0 003.537.7.5.5 0 11.8.6 3 3 0 11.601-1.8zm-1.063-.5a2 2 0 00-3.874 0h3.874z"/>
</symbol><symbol viewBox="0 0 10 10" id="accordion-arrow-down" xmlns="http://www.w3.org/2000/svg">
    <path d="M9.354.994L2.207 8.14H7.5a.5.5 0 110 1H1a.5.5 0 01-.5-.5v-6.5a.5.5 0 011 0v5.293L8.646.286a.5.5 0 01.708.708z"/>
</symbol><symbol viewBox="0 0 10 10" id="accordion-arrow-up" xmlns="http://www.w3.org/2000/svg">
    <path d="M9.5.81v6.5a.5.5 0 01-1 0V2.017L1.354 9.164a.5.5 0 11-.707-.708L7.793 1.31H2.5a.5.5 0 110-1H9a.5.5 0 01.5.5z"/>
</symbol><symbol viewBox="0 0 12 11" id="arrow-down" xmlns="http://www.w3.org/2000/svg">
    <path d="M11.063 2.688V10a.563.563 0 01-.563.563H3.188a.563.563 0 010-1.125h5.954l-8.04-8.04a.563.563 0 01.796-.796l8.04 8.04V2.688a.563.563 0 111.125 0z"/>
</symbol><symbol viewBox="0 0 11 11" id="arrow-up" xmlns="http://www.w3.org/2000/svg">
    <path d="M10.125.563v7.312a.562.562 0 11-1.125 0V1.92L.96 9.96a.563.563 0 01-.795-.795l8.04-8.04H2.25A.562.562 0 112.25 0h7.313a.562.562 0 01.562.563z"/>
</symbol><symbol viewBox="0 0 14 14" id="dribble" xmlns="http://www.w3.org/2000/svg">
    <path d="M7 .2a6.5 6.5 0 106.5 6.5A6.507 6.507 0 007 .2zm5.478 6.011a10.536 10.536 0 00-3.224.354c-.219-.648-.5-1.272-.84-1.865A10.52 10.52 0 0010.8 2.728a5.486 5.486 0 011.677 3.483zm-2.46-4.107a9.485 9.485 0 01-2.143 1.754A10.576 10.576 0 005.461 1.42a5.5 5.5 0 014.562.684h-.005zM4.353 1.88a9.57 9.57 0 012.625 2.45 9.489 9.489 0 01-5.245.787 5.524 5.524 0 012.62-3.236zM1.5 6.7c0-.201.011-.402.033-.602a10.554 10.554 0 006-.923c.311.539.569 1.107.769 1.696-.531.2-1.045.442-1.537.725a10.576 10.576 0 00-3.442 3.191A5.488 5.488 0 011.5 6.7zm2.625 4.688a9.557 9.557 0 013.14-2.925 9.3 9.3 0 011.31-.625 9.53 9.53 0 01.014 4.127 5.495 5.495 0 01-4.464-.577zm5.566.108a10.543 10.543 0 00-.162-3.967 9.52 9.52 0 012.947-.317 5.508 5.508 0 01-2.785 4.283z"/>
</symbol><symbol viewBox="0 0 14 14" id="instagram" xmlns="http://www.w3.org/2000/svg">
    <path d="M7 3.7a3 3 0 100 6 3 3 0 000-6zm0 5a2 2 0 110-4 2 2 0 010 4zm3-8.5H4A3.504 3.504 0 00.5 3.7v6A3.504 3.504 0 004 13.2h6a3.504 3.504 0 003.5-3.5v-6A3.504 3.504 0 0010 .2zm2.5 9.5a2.5 2.5 0 01-2.5 2.5H4a2.5 2.5 0 01-2.5-2.5v-6A2.5 2.5 0 014 1.2h6a2.5 2.5 0 012.5 2.5v6zM11 3.45a.75.75 0 11-1.5 0 .75.75 0 011.5 0z"/>
</symbol><symbol viewBox="0 0 434 160" id="logo" xmlns="http://www.w3.org/2000/svg">
    <g clip-path="url(#nclip0_316_2)">
        <path d="M4.266 1.6c-2.533 2.533-2 6.267 5.067 34.8 6 24 7.2 27.333 10.667 30.533l4 3.734h28.533c27.067 0 28.534-.134 30.933-2.8 2.267-2.534 2.267-3.067.4-6.267l-2-3.6-26.8-.4-26.8-.267L22 31.6c-3.467-14-7.2-26.933-8.133-28.667C11.732-.267 6.8-.933 4.267 1.6zM131.067 8c-2.267.8-5.734 3.2-7.6 5.467C120.533 16.8 120 18.933 120 25.6c0 7.467.4 8.4 4.533 12.4 2.667 2.4 7.734 5.2 12.267 6.533C148 48 150.667 50 150.667 54.667c0 6.666-4.534 8.533-17.867 7.466l-11.067-.933-.933 4.267c-.4 2.4-.267 4.933.4 5.6.8.8 7.2 1.6 14.4 2 11.467.533 13.867.266 18.667-2.134 6.4-3.333 9.733-9.466 9.733-17.866 0-8.267-3.733-13.6-11.6-16.4-20.4-7.467-23.733-10.4-18.267-16C136 18.8 138.8 18.533 149.2 18.8l12.8.4.4-4.8c.267-3.467-.133-4.933-1.867-5.6-4-1.6-25.066-2.133-29.466-.8zm58.266 1.6c-4.666 2.4-6.8 4.667-9.333 9.733-2.933 5.867-3.333 8.4-3.333 21.334 0 18.533 2.666 25.6 11.466 30 7.6 4 25.734 3.466 31.334-.8 6.666-4.934 9.066-11.734 9.6-26.8.666-15.6-1.6-24.534-7.467-30C214 6 199.467 4.533 189.333 9.6zM212 22c2.933 3.067 3.333 4.933 3.733 16.4.534 14.933-1.733 21.2-8.133 23.333-5.333 1.734-12.667 0-14.933-3.466-4.534-7.067-4-30 .8-36.134 2.266-2.8 3.866-3.466 9.066-3.466 5.067 0 6.934.666 9.467 3.333zm44.8-14c-4.667 1.467-8.4 4.8-11.333 10-1.734 3.2-2.134 7.733-2.134 22 0 16 .267 18.667 2.934 23.467 4.4 8.266 9.733 10.266 25.866 9.6 7.2-.267 13.467-.934 14-1.334.4-.533.534-2.933 0-5.466l-.8-4.534-11.333.134c-15.467.133-16.933-1.334-17.733-17.467-.667-13.6 1.2-22.4 5.333-24.533 1.6-.8 7.067-1.334 13.2-.934l10.533.4.8-4.4c.534-2.4.534-4.8.134-5.2C283.6 7.067 263.733 6 256.8 8zm85.867 1.6c-4.134 2.133-7.067 4.933-9.334 9.067-3.066 5.466-3.333 7.466-3.333 22 0 14.666.267 16.533 3.333 21.866 4.667 8.134 10.134 10.8 22.667 10.8 18.933 0 25.6-7.333 26.4-29.333.667-14-.8-21.2-5.467-28.133-4-6-9.066-8.267-19.6-8.934-7.066-.4-9.733.134-14.666 2.667zm23.2 13.467c2.266 3.066 2.933 6.133 3.2 16C369.6 57.6 364.8 64.4 352.533 62.133c-6.133-1.2-8.666-5.6-9.466-16-.934-11.2.4-19.733 3.866-24.133 2.4-3.067 3.467-3.467 9.467-3.067 5.467.267 7.2 1.067 9.467 4.134zm-64.534 17.6v32.666h12V8h-12v32.667zM22.8 82.267c-2.933 3.066-5.467 10-13.2 37.066-5.333 18.267-9.6 34-9.6 34.8 0 2 4.4 5.867 6.667 5.867 4.266 0 6.666-5.6 15.466-36l9.2-32h36.534l2.666 8.933C72 106 76.267 120.4 79.867 133.2c3.733 12.8 7.466 24 8.266 24.933 1.867 2.267 6.8 2.4 8.934.267.933-.933 1.6-3.067 1.6-5.067 0-3.733-17.467-64.666-19.867-69.066-2.667-4.934-5.867-5.6-29.467-5.6H26.4l-3.6 3.6zm107.2 6.4c-5.067 2.666-7.067 5.333-8.8 11.6-1.867 7.066.4 14.8 5.466 18.4 2.134 1.6 8.267 4.266 13.6 6.133 10 3.333 11.734 4.667 11.734 9.467 0 6-3.467 7.466-16.8 6.8l-12.267-.534-.8 3.867c-.4 2.133-.8 4.4-.8 4.933 0 1.334 15.067 4 22.133 4 2.934 0 8-1.333 11.2-3.066 7.867-3.867 10.934-9.734 10.267-19.467-.667-9.067-4.8-13.2-17.2-17.333-14.533-4.8-18.133-9.6-11.067-14.267 2.8-1.867 5.467-2.133 14.534-1.333 12 .8 12.8.533 12.8-6.534 0-2.4-.934-3.2-4.934-3.866-9.6-1.467-24.933-.934-29.066 1.2zm50 30.533V152h13.333v-18.667h8.4c11.734-.133 18.4-3.333 22.134-10.933 3.6-7.6 3.733-18.667.266-25.067-4.266-8-9.066-9.866-27.733-10.4L180 86.4v32.8zm31.2-17.6c2.933 4 2.667 13.333-.133 16.933-1.734 2.134-4.4 3.2-10 3.734l-7.734.8v-24.4h7.867c6.8 0 8.267.4 10 2.933zm36.133-13.333c-.8 2.4-14 61.333-14 62.666 0 .534 2.934 1.067 6.534 1.067h6.4l1.2-5.733 1.2-5.6h22.666l1.2 5.6 1.2 5.733h6.4c4.4 0 6.534-.533 6.534-1.733-.134-.8-3.2-15.467-7.067-32.267l-7.067-30.667-12.266-.4c-9.067-.266-12.4.134-12.934 1.334zm16.934 19.2c1.333 5.066 2.666 12 3.2 15.466l.933 6.4h-8.267c-7.2 0-8.133-.266-8.133-2.666 0-3.2 5.067-26.534 6.133-28.267 1.734-2.8 4 .4 6.134 9.067zM306.8 88.933c-7.466 3.734-10 11.2-10 30.4-.133 13.734.4 16.934 2.8 22.4 2.4 5.2 4.134 6.8 9.334 9.2 5.333 2.4 7.866 2.667 17.333 2 6.133-.4 11.733-1.2 12.4-1.6.8-.4 1.333-3.066 1.333-5.733v-4.933l-11.866.4c-11.334.533-11.867.4-14.534-3.067-3.6-4.533-4.933-16-3.2-27.067 2-12.133 3.2-12.933 17.6-12.8l12 .267v-5.067c0-4.533-.4-5.066-4.133-5.866-8.267-1.6-24.4-.8-29.067 1.466zm47.867 30.4V152H432v-10.667h-64v-16h64v-12h-64V98.667h64v-12h-77.333v32.666z"/>
    </g>
    <defs>
        <clipPath id="nclip0_316_2">
            <path d="M0 0h433.333v160H0z"/>
        </clipPath>
    </defs>
</symbol><symbol viewBox="0 0 300 90" id="logo-1" xmlns="http://www.w3.org/2000/svg">
    <path d="M102.621 56.417h4.718c1.86 0 3.445.225 4.755.675 1.31.454 2.463 1.305 3.461 2.552 1.493 1.912 2.241 4.25 2.241 7.012 0 3.374-.878 6.012-2.627 7.909-1.754 1.9-4.235 2.85-7.45 2.85H97.212v-28.61h5.41l-.001 7.612zm0 4.504v11.994h3.781c1.022 0 1.888-.1 2.597-.3.708-.2 1.292-.525 1.753-.98.461-.454.794-1.06 1.004-1.818.209-.758.315-1.686.315-2.78 0-2.265-.487-3.85-1.456-4.758-.972-.905-2.52-1.358-4.647-1.358h-3.347zm18.427 16.494v-28.61h5.685v28.61h-5.685zm18.363 0c-2.979 0-5.155-.59-6.528-1.774-1.371-1.18-2.057-3.153-2.057-5.917V56.417h5.41v12.87c0 .69.053 1.26.159 1.712.107.452.291.811.555 1.075.262.268.633.452 1.107.56.475.104 1.069.159 1.783.159h4.434V56.415h5.412v20.999h-10.275zm24.176 0c-3.45 0-6.044-.877-7.782-2.63-1.739-1.754-2.607-4.37-2.607-7.85 0-3.453.868-6.071 2.607-7.85 1.737-1.779 4.333-2.67 7.782-2.67h7.96V60.8h-7.216c-.862 0-1.612.045-2.254.138-.641.093-1.162.286-1.568.578-.406.292-.712.697-.922 1.214-.211.518-.328 1.19-.353 2.012h12.311v4.382h-12.311c.025.877.137 1.568.333 2.073.196.504.496.896.902 1.175.406.278.921.459 1.549.538.627.079 1.386.12 2.274.12h7.253v4.384h-7.958zm17.11-20.998h4.716c1.861 0 3.447.225 4.757.675 1.307.454 2.462 1.305 3.46 2.552 1.494 1.912 2.24 4.25 2.24 7.012 0 3.374-.876 6.012-2.626 7.909-1.755 1.9-4.234 2.85-7.449 2.85h-10.509v-28.61h5.412l-.001 7.612zm0 4.504v11.994h3.78c1.023 0 1.889-.1 2.597-.3.707-.2 1.292-.525 1.752-.98.461-.454.795-1.06 1.005-1.818.209-.759.316-1.686.316-2.78 0-2.265-.487-3.85-1.457-4.758-.97-.905-2.52-1.358-4.646-1.358h-3.347zm27.889-4.505c2.141 0 3.643.399 4.508 1.196.861.797 1.293 2.165 1.293 4.103v3.507h-5.215v-2.71c0-.93-.178-1.505-.533-1.733-.358-.225-.984-.339-1.879-.339h-1.939v16.975h-5.413V56.416h9.178zm9.459-2.391v-5.22h5.724v5.22h-5.724zm0 23.39V56.417h5.724v20.998h-5.724zm19.095 0c-3.242 0-5.734-.95-7.472-2.85-1.738-1.898-2.604-4.534-2.604-7.909 0-2.763.747-5.1 2.24-7.013.969-1.246 2.116-2.098 3.44-2.55 1.322-.452 2.912-.676 4.776-.676h4.679v-7.61h5.411v28.609h-10.47v-.001zm5.057-16.494h-3.31c-2.125 0-3.673.453-4.645 1.358-.973.908-1.455 2.493-1.455 4.758 0 1.092.103 2.018.315 2.78.208.76.543 1.366 1.003 1.818.463.453 1.045.78 1.754.98.708.199 1.573.3 2.598.3h3.741l-.001-11.994zm29.519 15.739c0 2.842-.614 4.947-1.843 6.316-1.229 1.37-3.213 2.052-5.959 2.052h-10.705v-4.263h9.763c1.072 0 1.882-.26 2.432-.777.548-.517.823-1.254.823-2.21v-.359h-4.433c-.781 0-1.521-.012-2.213-.04a10.48 10.48 0 01-1.979-.258 7.17 7.17 0 01-1.825-.699c-.588-.32-1.17-.757-1.749-1.314-.965-.928-1.715-2.098-2.251-3.506-.536-1.409-.804-2.949-.804-4.622 0-1.674.268-3.208.804-4.602.536-1.395 1.286-2.556 2.251-3.486.996-.983 2.106-1.64 3.336-1.974 1.229-.332 2.703-.498 4.43-.498h9.92v20.243h.002v-.003zm-5.488-3.59V60.918h-2.822c-.916 0-1.719.026-2.409.08a4.326 4.326 0 00-1.906.598c-.886.532-1.514 1.229-1.879 2.092-.368.865-.548 1.958-.548 3.288 0 1.195.13 2.192.39 2.989.262.797.668 1.422 1.213 1.873.552.451 1.25.77 2.098.956.851.185 1.863.278 3.04.278h2.823zm19.251 4.345c-3.45 0-6.046-.877-7.784-2.63-1.738-1.754-2.608-4.37-2.608-7.85 0-3.453.87-6.071 2.608-7.85 1.738-1.78 4.334-2.67 7.784-2.67h7.96V60.8h-7.213c-.862 0-1.614.045-2.256.138-.639.093-1.164.286-1.568.578-.406.292-.709.697-.921 1.214-.211.519-.329 1.19-.356 2.012h12.312v4.382h-12.312c.028.877.138 1.568.334 2.073.199.504.497.896.903 1.175.406.278.924.459 1.548.538.628.079 1.385.12 2.274.12h7.253v4.384h-7.958z"/>
    <path d="M200.267 8.289C132.066-4.984 49.399 13.004 4.419 77.946h47.5C90.928 22.88 141.863 1.62 200.267 8.289z"/>
    <path d="M110.406 29.569c51.804-25.575 114.787-13.954 147.275 20.22h22.639C226.783 6.083 161.672-1.57 110.406 29.568z"/>
    <path d="M200.267 8.29C141.863 1.62 90.927 22.88 51.918 77.945h5.053C74.854 56.36 90.119 41.074 110.404 29.57 161.671-1.57 226.783 6.084 280.318 49.79h4.986c-20.348-20.363-50.877-34.85-85.037-41.5z"/>
</symbol><symbol viewBox="0 0 300 90" id="logo-2" xmlns="http://www.w3.org/2000/svg">
    <path fill-rule="evenodd" clip-rule="evenodd" d="M86.21 88.523c-13.531-4.454-13.764-24.337-9.785-39.765 2.25-8.664 5.572-14.397 9.177-17.657 2.807-2.638 6.224-4.414 8.61-4.002-1.962-1.567-4.96-1.238-5.803-1.112-7.49 1.071-17.18 9.774-20.97 27.967-2.808 13.57.936 26.277 8.894 31.846 2.901 1.898 5.993 3.135 9.876 2.723zm158.638-26.278c-7.771-1.03-15.914-2.97-23.734-2.887-8.24.041-15.447 2.68-20.081 4.993 5.337-5.774 10.251-11.511 18.957-11.882 9.267-.414 16.386 5.239 22.33 8.499.89.496 1.682.866 2.528 1.277z"/>
    <path fill-rule="evenodd" clip-rule="evenodd" d="M132.692 48.426c-3.462 1.488-5.897 4.662-7.584 7.883-1.963 3.668-5.523 10.971-7.959 15.466-6.224 11.675-12.778 16.502-22 17.945-4.538.698-9.363.08-14.277-1.734 5.01.866 8.38.497 12.125-.99 7.535-2.928 12.216-10.477 17.086-20.336 5.054-10.231 11-17.534 17.88-18.36 1.686-.203 3.374-.285 4.729.127z"/>
    <path fill-rule="evenodd" clip-rule="evenodd" d="M202.812 62.41c-5.803 4.827-11.748 7.963-18.162 7.963-10.251 0-16.009-4.126-24.152-11.633-3.699-3.463-10.349-10.024-16.712-11.55-6.04-1.443-14.322-.084-18.066 1.61 4.632-1.075 7.021-.536 9.218.41 2.202.95 6.18 3.55 8.521 5.86 7.444 7.258 15.263 13.942 20.83 16.747 6.414 3.215 17.882 6.394 27.288.947 4.543-2.637 8.007-6.517 11.235-10.354zm38.851-1.816c.187.125.423.252.702.414 19.475 10.726 33.329 5.899 40.445 2.598-3.883-1.196-8.8-4.124-10.485-6.886-4.682 4.454-11.047 6.022-17.366 5.939-2.906-.041-8.755-.62-13.296-2.065zM51.805 2.638c-.234 0-1.126 0-1.594.166-5.617 2.146-10.484 15.8-9.267 30.36 1.543 18.028 8.66 28.546 19.565 33.497 9.83 4.454 19.336 4 26.167 1.278 9.362-3.672 17.461-12.09 18.067-25.081.234-5.692-1.403-11.096-4.96-14.232-2.714-2.353-7.395-3.96-13.48-2.186 3.322-.742 6.225-.165 8.097 1.032 3.042 1.857 4.447 5.692 4.636 10.972.14 5.695-2.017 18.316-13.296 23.184-9.596 4.126-22.093.083-30.193-10.436-7.534-9.695-8.566-22.36-8.52-29.372.142-10.726 2.531-17.902 4.778-19.182zM.269 65.67c-.75 4.29 0 10.104 3.133 14.068 4.309 5.4 9.692 6.927 14.889 6.35-5.431-1.691-8.425-5.362-9.69-10.804-.797-3.385-.606-7.344.373-10.89C6.494 65.71 3.03 66.163.27 65.67z"/>
    <path fill-rule="evenodd" clip-rule="evenodd" d="M26.482 86.707C41.084 84.894 54.659 66.7 61.447 43.6 67.909 21.572 63.743.618 55.924.534c-1.778 0-4.025.865-6.788 2.805a5.575 5.575 0 011.777-.658c3.42-.413 4.915 3.628 5.806 10.229.982 6.97.14 21.367-6.414 37.701-7.584 18.978-20.83 33.291-30.142 35.189-2.718.536-5.48.577-8.103-.165 3.747 1.404 8.57 1.816 14.422 1.07zm110.422-44.631l4.262-17.699h-10.065l-4.261 17.7h-12.265L124.733 0h12.266l-3.701 15.47h10.065L147.062 0h12.214l-10.108 42.076h-12.264zm54.486-21.534l-2.155 8.952c-1.45 6.35-1.495 10.313-.235 12.58h-10.948c-.234-1.073-.286-2.228-.329-3.343-.608.826-1.544 1.61-2.715 2.352V34.07c1.121-.824 1.823-2.186 2.152-3.546l3.044-13.077c-1.92-.412-3.746 0-5.196 1.072V10.93a29.633 29.633 0 015.757-.785c4.87-.207 10.724.742 13.341 1.856-1.031 2.188-2.105 5.53-2.716 8.541zm-16.382 20.54V34.07c-.752.535-1.637.867-2.668.787-1.544-.084-2.574-1.322-2.574-3.26 0-3.88 1.827-9.571 4.307-12.21.283-.332.607-.618.935-.868V10.93c-3.648.865-7.02 2.432-9.688 4.784-4.588 4.041-7.489 9.57-7.864 16.254v1.774c.282 5.569 3.841 9.445 10.718 9.322 2.527-.082 4.961-.909 6.834-1.981zm40.069.994H201.97l-3.887-29.907 11.845-1.733.936 10.602c.372 4.207.467 5.94.517 9.239h.138c1.356-3.218 2.248-5.446 4.587-9.9l4.913-9.445h12.312l-18.254 31.144zm33.234-6.56c2.763-.039 6.368-1.03 8.941-3.01l2.431 6.805c-3.696 2.392-7.86 3.424-11.372 3.712v-7.506zm0-25.329c.702-.08 1.453-.08 2.245-.08 7.022 0 12.546 2.474 12.546 8.868 0 5.443-4.913 10.313-14.792 10.725v-6.394c2.477-.373 4.262-1.649 4.262-3.672 0-1.443-1.128-2.435-2.81-2.435a5.33 5.33 0 00-1.452.206l.001-7.218zm-6.037 21.45c-.047-.741.046-1.524.141-2.269.795.166 2.904.372 4.071.372.655 0 1.219 0 1.827-.04v-6.394c-.513.08-1.031.122-1.591.164a12.241 12.241 0 01-2.718-.33c.516-2.886 2.017-5.072 4.31-5.735v-7.218c-11.096 1.074-17.835 10.106-17.694 19.8.046 3.094.748 5.982 2.766 8.417 2.618 3.176 6.69 4.704 12.355 4.743.795 0 1.685-.04 2.573-.123v-7.506h-.607c-3.188-.086-5.199-1.323-5.433-3.88zm54.769 10.44c-1.268-2.269-1.221-6.231.233-12.582l2.343-9.693c1.169-4.788 0-9.614-8.475-9.655-3.93 0-7.958 1.32-10.86 3.506 0-1.197-.188-2.598-.514-3.506l-11.139 1.733c.936 2.972.651 6.6-.424 11.302l-4.541 18.896h11.797l5.103-21.122c1.403-1.485 2.993-2.31 4.913-2.31 1.967 0 2.293 1.403 1.685 3.84l-2.759 11.671c-.703 2.972-.987 6.021-.611 7.92h13.249z"/>
</symbol><symbol viewBox="0 0 500 100" id="logo-3" xmlns="http://www.w3.org/2000/svg">
    <path d="M133.871 78.877h-10.157v-46.49h10.157v20.194h33.69V32.387h10.157v46.49h-10.157V61.298h-33.69v17.579zm72.563 1.162c-6.724 0-12.136-1.767-16.236-5.303-4.102-3.534-6.152-8.208-6.152-14.02 0-5.81 2.05-10.483 6.152-14.019 4.1-3.534 9.512-5.303 16.236-5.303 6.771 0 12.207 1.769 16.308 5.303 4.101 3.536 6.152 8.209 6.152 14.02 0 5.81-2.051 10.485-6.152 14.019-4.101 3.535-9.537 5.303-16.308 5.303zm0-7.99c3.909 0 7.057-1.041 9.442-3.124 2.384-2.081 3.577-4.818 3.577-8.208 0-3.438-1.193-6.199-3.577-8.281-2.385-2.082-5.533-3.124-9.442-3.124-3.863 0-6.986 1.053-9.37 3.16-2.385 2.107-3.577 4.856-3.577 8.245 0 3.39 1.192 6.127 3.577 8.208 2.384 2.083 5.507 3.124 9.37 3.124zm49.377 7.99c-6.724 0-12.136-1.767-16.236-5.303-4.102-3.534-6.152-8.208-6.152-14.02 0-5.81 2.05-10.483 6.152-14.019 4.1-3.534 9.512-5.303 16.236-5.303 6.771 0 12.207 1.769 16.308 5.303 4.101 3.536 6.152 8.209 6.152 14.02 0 5.81-2.051 10.485-6.152 14.019-4.101 3.535-9.537 5.303-16.308 5.303zm0-7.99c3.91 0 7.057-1.041 9.442-3.124 2.384-2.081 3.577-4.818 3.577-8.208 0-3.438-1.193-6.199-3.577-8.281-2.385-2.082-5.532-3.124-9.442-3.124-3.863 0-6.986 1.053-9.37 3.16-2.385 2.107-3.576 4.856-3.576 8.245 0 3.39 1.191 6.127 3.576 8.208 2.384 2.083 5.507 3.124 9.37 3.124zm41.224 7.554c-4.397 0-6.907-2.045-8.261-3.905l-.078-.11c-1.311-1.853-2.351-4.27-2.389-9.488l-.001-16.061h-5.151v-7.482h6.581v-10.17h8.727v10.17h10.299v7.481h-10.299v13.584c-.076 4.059.563 5.538 1.533 6.522 1.702 1.725 6.9.556 8.766-.653v7.871c-2.176 1.537-6.104 2.24-9.727 2.24zm35.609.436c-6.343 0-12.732-.944-19.17-2.833v-8.281c5.389 2.083 11.23 3.124 17.524 3.124l.743-.003c4.143-.03 7.138-.32 8.985-.87 1.955-.58 2.933-1.62 2.933-3.122 0-1.405-1.085-2.385-3.254-2.942-2.067-.53-4.566-.874-7.497-1.031l-.443-.023a110.852 110.852 0 01-9.37-.835c-3.124-.41-5.771-1.417-7.94-3.014-2.17-1.599-3.254-3.85-3.254-6.756 0-3.97 1.883-6.974 5.65-9.008 3.766-2.034 8.893-3.05 15.379-3.05 5.101 0 11.062.678 17.882 2.034v7.99c-5.866-1.259-11.469-1.889-16.809-1.889-8.107 0-12.16 1.26-12.16 3.778 0 1.26 1.096 2.143 3.29 2.651 2.078.482 4.562.823 7.454 1.022l.486.032c3.099.194 6.21.52 9.334.98 3.123.46 5.781 1.514 7.975 3.16 2.193 1.647 3.291 3.947 3.291 6.9 0 4.069-1.86 7.083-5.579 9.044-3.72 1.961-8.87 2.942-15.45 2.942zm59.429-37.482h10.157v36.32h-11.158l1.431-14.964h-.573c-1.67 10.75-7.535 16.126-17.596 16.126-5.15-.098-8.917-1.804-11.301-5.121-2.342-3.258-3.534-8.653-3.576-16.186l-.001-16.175h10.158v14.528c0 5.473.762 9.37 2.288 11.694 1.526 2.325 4.029 3.487 7.511 3.487 3.863 0 6.938-1.79 9.227-5.375 2.237-3.502 3.38-8.137 3.431-13.906l.002-10.428zm23.942-3.49c-1.955 0-3.481-.497-4.577-1.49-1.097-.992-1.645-2.458-1.645-4.395 0-1.937.548-3.389 1.645-4.358 1.096-.969 2.622-1.453 4.577-1.453 2.004 0 3.565.485 4.686 1.453 1.12.97 1.681 2.421 1.681 4.358 0 3.922-2.123 5.884-6.367 5.884zm5.223 39.81H411.08v-36.32h10.158v36.32zm57.232 1.162c-6.486 0-11.695-1.767-15.629-5.303-3.934-3.534-5.901-8.208-5.901-14.02 0-5.81 1.967-10.483 5.901-14.019 3.934-3.534 9.143-5.303 15.629-5.303 6.39 0 11.552 1.515 15.486 4.54 3.858 2.97 5.87 6.857 6.036 11.666l.008.348v5.892h-33.332c.572 2.955 2.086 5.086 4.542 6.393 2.456 1.307 6.068 1.961 10.836 1.961l.675-.005c5.836-.074 8.592-1.057 11.557-2.174l.284-.117c.945-.4 3.571-1.572 3.864-1.7v8.282c-3.576 1.405-6.7 2.349-9.37 2.833-2.671.484-6.199.726-10.586.726zm-12.017-21.21l23.891-.582c-.143-3.196-1.17-5.484-3.076-6.865-1.908-1.38-4.84-2.07-8.798-2.07-3.815 0-6.688.74-8.619 2.216-1.931 1.478-3.064 3.91-3.398 7.3zm-22.561 20.774c-4.396 0-6.906-2.045-8.26-3.905l-.078-.11c-1.311-1.853-2.351-4.27-2.389-9.488l-.002-16.061h-5.15v-7.482h6.581v-10.17h8.726v10.17h10.3v7.481h-10.3v13.584c-.075 4.059.564 5.538 1.534 6.522 1.702 1.725 6.9.556 8.766-.653v7.871c-2.176 1.537-6.104 2.24-9.728 2.24zM9.821.827c.215-.617.86-.953 1.472-.783l.087.027L44.35 12.8c1.559-.26 3.106-.39 4.629-.38 5.754.041 11.188 1.353 16.637 4.622l31.713-2.666a1.02 1.02 0 01.923.501 1.053 1.053 0 01-.269 1.378l-.09.06-19.81 11.719c.32.372.64.753.962 1.142C88.07 40.106 93.56 55.92 96.183 65.064a18.372 18.372 0 01-2.722 15.768c-5.894 8.192-18.463 19.344-43.123 19.166-26.922-.19-40.828-13.792-47.51-22.151A13.157 13.157 0 01.832 65.09l.5-1.327c3.943-10.414 11.288-28.5 17.17-35.225 3.543-4.044 7.627-7.536 11.942-10.226L10.194 2.197a1.252 1.252 0 01-.373-1.37z"/>
    <path d="M49.572 71.62a.214.214 0 01.279-.125 16.691 16.691 0 0014.13 1.275l.268-.1a.203.203 0 01.243.052.211.211 0 01.01.259l-5.901 6.6a1.015 1.015 0 01-1.43.084c-2.181-1.905-5.826-5.883-7.573-7.837a.222.222 0 01-.026-.208zm8.193-33.8c15.261-10.782 23.534-1.422 28.176 8.961 3.354 7.483 4.542 21.494-6.345 23.64-8.34 1.652-16.045-6.928-21.744-14.939a1.788 1.788 0 00-2.92-.008l-.231.328C50.8 61.357 41.497 76.459 27.73 72.637c-13.285-3.694-16.204-18.869-10.679-29.359 8.175-15.818 20.118-20.972 40.713-5.457zm-2.17 21.707a1.37 1.37 0 011.885-.034l.077.075 7.293 8.44a.756.756 0 01-.215 1.16 16.219 16.219 0 01-7.078 1.814c-3.243-.027-6.561-2.213-7.92-3.218l-.055-.045a.759.759 0 01-.111-.996l.05-.064 5.992-7.059.01.003c.024-.026.048-.052.073-.076z"/>
    <path d="M75.475 47.146l.084.138c1.765 2.782.975 6.49-1.765 8.282-2.74 1.792-6.39.99-8.155-1.792-1.716-2.706-1.018-6.294 1.555-8.139l.142-.098a5.649 5.649 0 017.96 1.339 5.7 5.7 0 01.18.27zm-36.891-3.192c-3.071 1.063-4.598 4.375-3.683 7.46 1.047 3.119 4.309 4.67 7.346 3.74 3.071-1.063 4.573-4.417 3.683-7.46.008-.02-.012-.078-.05-.147-.944-3.002-3.961-4.588-6.834-3.76-.132-.033-.297.067-.462.167z"/>
</symbol><symbol viewBox="0 0 300 150" id="logo-4" xmlns="http://www.w3.org/2000/svg">
    <path d="M0 150h156.82v-18.943h-9.861v9.511H9.861V9.432H146.96V86.4h9.861V0H0v150z"/>
    <path d="M44.297 91.04h-9.861v35.454h9.86V91.04zm25.4 16.349L59.59 91.04H49.23v35.376h9.376v-18.394h.163l11.42 18.394h9.042V91.04h-9.452v16.349h-.082zM84.082 91.04v35.454h12.492c11.754 0 17.344-2.83 17.344-17.688 0-14.622-5.59-17.609-17.426-17.609l-12.41-.157zm19.729 17.766c0 8.962-2.631 9.511-6.329 9.511h-3.369v-18.63h3.041c4.108 0 6.657.158 6.657 9.119zM127.23 91.04h-9.861v35.454h9.861V91.04zm81.786-.476c-13.81 0-16.271 8.648-16.271 18.159 0 9.432 2.384 18.158 16.271 18.158 13.729 0 16.19-8.647 16.19-18.158 0-9.433-2.385-18.159-16.19-18.159zm0 27.989c-5.426 0-6.164-3.615-6.164-9.432 0-5.818.82-9.354 6.164-9.354 5.426 0 6.164 3.615 6.164 9.354 0 5.817-.826 9.432-6.164 9.432zm69.369-27.989c-13.811 0-16.272 8.648-16.272 18.159 0 9.432 2.385 18.158 16.272 18.158 13.728 0 16.189-8.647 16.189-18.158-.082-9.433-2.467-18.159-16.189-18.159zm0 27.989c-5.426 0-6.164-3.615-6.164-9.432 0-5.818.82-9.354 6.164-9.354 5.426 0 6.164 3.615 6.164 9.354-.082 5.817-.82 9.432-6.164 9.432zm19.312 2.281c-1.81 0-2.302 1.177-2.302 2.752 0 1.496.41 2.673 2.302 2.673 1.811 0 2.303-1.177 2.303-2.673 0-1.575-.492-2.752-2.303-2.752zm0 4.954c-1.476 0-1.892-1.02-1.892-2.281 0-1.255.328-2.281 1.892-2.281 1.565 0 1.893 1.02 1.893 2.281-.082 1.334-.41 2.281-1.893 2.281z"/>
    <path d="M298.934 122.958c0-.628-.247-1.02-1.067-1.02h-1.312v3.222h.738v-1.177h.41l.492 1.177h.739l-.575-1.255c.411-.163.575-.477.575-.947zm-1.073.47h-.574v-.941h.574c.328 0 .41.157.41.471 0 .313-.164.47-.41.47zm-124.108-10.614h6.411v.628c0 3.85.164 5.66-4.77 5.66-4.523 0-6.164-1.967-6.164-9.981 0-8.334 2.549-9.355 6.492-9.355 2.959 0 4.934.785 6.656 1.654l5.262-7.942c-2.795-1.732-6.902-2.83-11.508-2.83-12.82 0-16.851 5.896-16.851 18.159 0 10.693 2.959 18.158 15.123 18.158 2.138 0 4.025-.157 5.59-.392h9.123V105.27h-14.139l-1.225 7.544zm69.37 0h6.41v.628c0 3.85.164 5.66-4.77 5.66-4.523 0-6.164-1.967-6.164-9.981 0-8.334 2.549-9.355 6.492-9.355 2.959 0 4.934.785 6.657 1.654l5.261-7.942c-2.795-1.732-6.902-2.83-11.508-2.83-12.82 0-16.851 5.896-16.851 18.159 0 10.693 2.959 18.158 15.123 18.158 2.139 0 4.025-.157 5.59-.392h9.123V105.27h-14.303l-1.06 7.544zM156.82 99.688V91.04h-24.574v35.376h24.574v-8.334h-14.877v-5.347h9.786l1.23-8.412h-11.016v-4.635h14.877z"/>
</symbol><symbol viewBox="0 0 300 90" id="logo-5" xmlns="http://www.w3.org/2000/svg">
    <path d="M15.358.069v54.063c0 5.708 2.647 11.182 7.36 15.218 4.712 4.036 11.103 6.304 17.767 6.304s13.056-2.268 17.768-6.304c4.712-4.036 7.36-9.51 7.36-15.218V0H80.97v87.671H65.773v-8.126c-5.629 4.345-12.6 7.207-20.08 8.244-7.48 1.037-15.151.205-22.093-2.397S10.74 78.528 6.554 73.118C2.368 67.708.093 61.38 0 54.89V.07h15.358zM92.388 0h14.795v31.956c5.449-4.351 12.264-7.242 19.607-8.318 7.343-1.075 14.893-.288 21.72 2.265 6.827 2.553 12.633 6.76 16.704 12.104 4.071 5.344 6.228 11.59 6.206 17.971-.021 6.38-2.221 12.616-6.327 17.94-4.107 5.323-9.941 9.502-16.786 12.021-6.844 2.52-14.399 3.27-21.734 2.158-7.336-1.112-14.131-4.037-19.551-8.414v7.988H92.388V0zm40.204 77.96c5.089 0 10.063-1.292 14.295-3.713 4.231-2.422 7.529-5.864 9.477-9.89 1.947-4.028 2.457-8.459 1.464-12.734-.993-4.275-3.444-8.202-7.042-11.284-3.599-3.082-8.183-5.181-13.174-6.032-4.992-.85-10.165-.413-14.867 1.255-4.701 1.668-8.72 4.492-11.547 8.117-2.828 3.624-4.337 7.885-4.337 12.243 0 5.845 2.711 11.45 7.537 15.584 4.825 4.133 11.37 6.455 18.194 6.455zm84.347-55.44c9.895 0 19.385 3.498 26.382 9.723 6.996 6.225 10.927 14.669 10.927 23.473v4.132h-60.627c.537 4.456 2.696 8.654 6.172 12 3.476 3.347 8.093 5.672 13.198 6.648 5.104.974 10.437.55 15.244-1.215 4.807-1.765 8.844-4.78 11.54-8.618l10.694 6.75c-3.824 4.749-9.006 8.58-15.051 11.125s-12.75 3.72-19.477 3.414c-6.726-.306-13.248-2.085-18.944-5.165-5.695-3.08-10.373-7.36-13.587-12.43-3.214-5.07-4.857-10.762-4.772-16.531.086-5.769 1.896-11.423 5.26-16.421 3.363-5 8.166-9.176 13.951-12.132 5.784-2.956 12.357-4.592 19.09-4.753zm-23.157 27.273h45.43c-2.493-9.78-11.659-16.253-22.675-16.253-10.855 0-20.102 6.542-22.755 16.253zm100.027-14.738c-4.388.06-8.58 1.791-11.687 4.825-3.107 3.034-4.885 7.133-4.958 11.428v36.295h-14.795V23.76h14.634v7.92c3.619-5.165 9.649-8.402 17.851-8.402H300v11.777h-6.191z"/>
</symbol><symbol viewBox="0 0 300 90" id="logo-6" xmlns="http://www.w3.org/2000/svg">
    <path d="M46.617 0C20.871 0 0 20.146 0 45c0 24.853 20.87 45 46.617 45 25.747 0 46.618-20.147 46.618-45 0-24.854-20.871-45-46.618-45zm21.235 65.028c-.214.327-.493.61-.82.832-.328.223-.698.38-1.09.465a3.15 3.15 0 01-2.298-.391c-7.886-4.841-16.858-6.232-24.425-6.229C31.12 59.7 24.718 61.3 23.372 61.67c-.193.052-.26.073-.26.073h.001a3.148 3.148 0 01-2.324-.21 2.97 2.97 0 01-1.488-1.736 2.852 2.852 0 01.218-2.243 3.027 3.027 0 011.797-1.437c.185-.05 7.713-2.294 17.904-2.298 8.306.003 18.464 1.497 27.695 7.149a2.947 2.947 0 011.34 1.843 2.86 2.86 0 01-.403 2.217zm6.054-12.449a3.616 3.616 0 01-.963 1.04 3.76 3.76 0 01-1.302.604 3.83 3.83 0 01-2.806-.386c-10.414-5.944-21.143-7.558-29.729-7.56-8.694-.003-15.127 1.672-16.431 2.046a6.54 6.54 0 00-.237.069 3.82 3.82 0 01-2.798-.244 3.611 3.611 0 01-1.816-2.07 3.462 3.462 0 01.212-2.705 3.666 3.666 0 012.119-1.782c.247-.072 7.9-2.456 18.95-2.461 9.526-.002 21.648 1.793 33.498 8.555a3.59 3.59 0 011.701 2.186 3.466 3.466 0 01-.398 2.709zm2.854-11.823c-.74 0-1.49-.179-2.18-.555-11.597-6.328-23.915-8.101-33.975-8.1C30.06 32.099 22.083 34.06 20.44 34.5c-.235.064-.305.085-.305.085a4.593 4.593 0 01-3.384-.316 4.413 4.413 0 01-1.341-1.06 4.244 4.244 0 01-.82-1.475 4.148 4.148 0 01.328-3.267 4.326 4.326 0 011.098-1.296c.45-.358.97-.627 1.528-.79.28-.077 9.721-2.848 23.06-2.856 11.108.002 24.995 1.937 38.345 9.208a4.343 4.343 0 011.91 2.066 4.15 4.15 0 01.204 2.762 4.282 4.282 0 01-1.587 2.306 4.546 4.546 0 01-2.716.89zm85.237-7.085c-8.298 0-14.7 7.341-14.7 16.398 0 9.055 5.771 16.397 14.7 16.397 8.299 0 15.028-7.342 15.028-16.397 0-9.057-6.728-16.398-15.028-16.398zm-1.905 25.648c-4.919 0-8.657-4.142-8.657-9.25 0-5.109 3.737-9.25 8.657-9.25 5.315 0 8.658 4.141 8.658 9.25 0 5.108-3.52 9.25-8.658 9.25z"/>
    <path d="M143.432 34.407h8.276v6.044l-1.852 5.887v8.198l1.906 6.78v13.823h-8.385l.055-40.732zm53.193-.771c-9.541 0-17.277 7.34-17.277 16.397 0 9.057 7.736 16.398 17.277 16.398 9.542 0 17.278-7.34 17.278-16.398 0-9.056-7.735-16.397-17.278-16.397zm-.035 25.858c-5.072 0-9.184-4.205-9.184-9.39 0-5.186 4.112-9.39 9.184-9.39 5.071 0 9.182 4.204 9.182 9.39 0 5.185-4.11 9.39-9.182 9.39zm41.85-25.157h8.421v31.604h-8.421V34.337zm4.356-3.924c2.846 0 5.153-2.228 5.153-4.975 0-2.748-2.307-4.975-5.153-4.975-2.847 0-5.154 2.227-5.154 4.975 0 2.747 2.307 4.975 5.154 4.975zm19.672 2.382v33.041h-8.421V33.678s-.747-11.626 10.527-11.395c0 0 3.338.07 6.025 1.051v6.783s-2.103-.802-4.936-.826c0 0-3.239-.1-3.195 3.504zm-35.68 23.119V26.066h-8.42v31.012s-.632 9.901 10.527 9.242c0 0 3.223 0 6.025-1.712v-6.58s-2.103 1.17-4.936 1.192c0 0-3.315.085-3.196-3.306z"/>
    <path d="M291.368 34.337l-7.774 21.723-8.652-21.723h-24.743v7.007h18.875l10.382 23.686c-.866 3.574-3.848 3.364-3.848 3.364-2.106 0-4.428-1.402-4.428-1.402l-2.831 5.887c2.274 2.042 7.84 2.312 7.84 2.312 8.276 0 10.671-7.848 10.671-7.848L300 34.337h-8.632zm-76.933.019h20.71v7.003h-20.71v-7.003zm-79.443 1.032s-5.445-4.204-11.253-4.204c0 0-5.878-.294-6.17 3.994 0 0-.3 3.618 3.967 4.654 0 0 10.462 3.007 13.09 4.239 0 0 6.412 2.592 6.028 10.589 0 0 .045 11.628-15.608 11.772 0 0-10.744.281-17.931-7.077l5.082-5.536s5.662 5.326 13.284 5.326c0 0 6.083.196 6.752-4.205 0 0 .76-3.9-5.009-5.186 0 0-8.929-2.172-11.833-3.573 0 0-6.639-2.309-6.388-10.582 0 0 .311-11.9 15.245-11.702 0 0 8.643-.273 15.245 5.465l-4.501 6.026z"/>
</symbol><symbol viewBox="0 0 10 10" id="open-accordion" xmlns="http://www.w3.org/2000/svg">
    <path d="M9.354.994L2.207 8.14H7.5a.5.5 0 110 1H1a.5.5 0 01-.5-.5v-6.5a.5.5 0 011 0v5.293L8.646.286a.5.5 0 01.708.708z"/>
</symbol><symbol viewBox="0 0 14 13" id="twitter" xmlns="http://www.w3.org/2000/svg">
    <path d="M13.462 2.009A.5.5 0 0013 1.7h-1.902A3.041 3.041 0 008.506.2a2.932 2.932 0 00-2.11.856A2.994 2.994 0 005.5 3.2v.38C2.984 2.918.926.87.904.849a.5.5 0 00-.853.308C-.22 4.142.649 6.14 1.426 7.292c.378.569.84 1.078 1.367 1.512C1.841 9.9.343 10.476.326 10.482a.5.5 0 00-.24.745c.047.07.234.316.692.546.566.283 1.314.427 2.222.427 4.417 0 8.107-3.401 8.484-7.778l1.87-1.868a.5.5 0 00.108-.545zm-2.813 1.838a.5.5 0 00-.145.321C10.25 8.111 6.955 11.2 3 11.2c-.66 0-1.125-.087-1.451-.192.72-.391 1.722-1.063 2.367-2.03a.5.5 0 00-.166-.71c-.03-.017-2.744-1.647-2.75-6C2 3.08 3.828 4.34 5.917 4.691A.5.5 0 006.5 4.2v-1a2 2 0 01.6-1.433A1.934 1.934 0 018.494 1.2c.791.01 1.53.492 1.84 1.2a.501.501 0 00.458.3h1l-1.143 1.147z"/>
</symbol></svg>